<svg width="82" height="58" viewBox="0 0 82 58" fill="none" xmlns="http://www.w3.org/2000/svg">
<rect width="82" height="55" fill="#641559"/>
<path d="M69.1875 7.58333C69.8671 7.58333 70.5189 7.82478 70.9995 8.25455C71.48 8.68432 71.75 9.26721 71.75 9.875V44.25H10.25V9.875C10.25 9.26721 10.52 8.68432 11.0005 8.25455C11.4811 7.82478 12.1329 7.58333 12.8125 7.58333H69.1875ZM12.8125 3C10.7736 3 8.8183 3.72433 7.37662 5.01364C5.93493 6.30295 5.125 8.05164 5.125 9.875V48.8333H76.875V9.875C76.875 8.05164 76.0651 6.30295 74.6234 5.01364C73.1817 3.72433 71.2264 3 69.1875 3H12.8125ZM0 51.125H82C82 52.9484 81.1901 54.697 79.7484 55.9864C78.3067 57.2757 76.3514 58 74.3125 58H7.6875C5.64865 58 3.6933 57.2757 2.25162 55.9864C0.809931 54.697 0 52.9484 0 51.125Z" fill="black"/>
</svg>
