<svg width="84" height="55" viewBox="0 0 84 55" fill="none" xmlns="http://www.w3.org/2000/svg">
<rect width="82" height="55" fill="#641559"/>
<path d="M69.1682 24.8256C69.1682 14.6265 57.6421 7.52808 41.073 7.52808C23.9042 7.52808 12.1372 15.4962 12.1372 27.1287C12.1372 39.1359 23.5916 46.75 41.6675 46.75C46.0852 46.75 50.3236 46.3271 53.4755 45.5984V42.6353C51.2717 43.3193 46.5362 43.7628 41.7392 43.7628C26.7435 43.7628 17.0726 37.3003 17.0726 27.2696C17.0726 17.4934 26.9177 10.4912 40.6168 10.4912C54.6337 10.4912 64.2328 16.2937 64.2328 24.7775C64.2328 30.5593 61.3936 34.2959 56.9758 34.2959C54.4543 34.2959 53.0193 33.3334 53.0193 31.6834V17.8956H47.7303V20.7625H47.1666C45.8033 18.7171 42.6515 17.4487 38.9666 17.4487C31.7916 17.4487 26.7793 21.4431 26.7793 27.1528C26.7793 33.1237 31.684 37.1421 38.9717 37.1421C43.0717 37.1421 46.2236 35.8015 47.7303 33.4056H48.2941C48.7092 35.7087 51.897 37.3518 55.997 37.3518C64.0535 37.3518 69.1682 32.4843 69.1682 24.8256ZM32.3861 27.2456C32.3861 23.1309 35.1536 20.6903 39.8481 20.6903C44.6143 20.6903 47.6586 23.2271 47.6586 27.2456C47.6586 31.264 44.5785 33.825 39.7763 33.825C35.1895 33.825 32.3861 31.3328 32.3861 27.2456Z" fill="black"/>
</svg>
