<svg width="82" height="57" viewBox="0 0 82 57" fill="none" xmlns="http://www.w3.org/2000/svg">
<rect y="2" width="82" height="55" fill="#641559"/>
<path d="M7.6875 3.4375C7.00788 3.4375 6.3561 3.61858 5.87554 3.94091C5.39498 4.26324 5.125 4.70041 5.125 5.15625V15.4688C5.125 15.9246 4.85502 16.3618 4.37446 16.6841C3.8939 17.0064 3.24212 17.1875 2.5625 17.1875C1.88288 17.1875 1.2311 17.0064 0.750539 16.6841C0.269977 16.3618 0 15.9246 0 15.4688V5.15625C0 3.78873 0.809931 2.47722 2.25162 1.51023C3.6933 0.543246 5.64865 0 7.6875 0L23.0625 0C23.7421 0 24.3939 0.181082 24.8745 0.50341C25.355 0.825738 25.625 1.26291 25.625 1.71875C25.625 2.17459 25.355 2.61176 24.8745 2.93409C24.3939 3.25642 23.7421 3.4375 23.0625 3.4375H7.6875ZM56.375 1.71875C56.375 1.26291 56.645 0.825738 57.1255 0.50341C57.6061 0.181082 58.2579 0 58.9375 0L74.3125 0C76.3513 0 78.3067 0.543246 79.7484 1.51023C81.1901 2.47722 82 3.78873 82 5.15625V15.4688C82 15.9246 81.73 16.3618 81.2495 16.6841C80.7689 17.0064 80.1171 17.1875 79.4375 17.1875C78.7579 17.1875 78.1061 17.0064 77.6255 16.6841C77.145 16.3618 76.875 15.9246 76.875 15.4688V5.15625C76.875 4.70041 76.605 4.26324 76.1245 3.94091C75.6439 3.61858 74.9921 3.4375 74.3125 3.4375H58.9375C58.2579 3.4375 57.6061 3.25642 57.1255 2.93409C56.645 2.61176 56.375 2.17459 56.375 1.71875ZM2.5625 37.8125C3.24212 37.8125 3.8939 37.9936 4.37446 38.3159C4.85502 38.6382 5.125 39.0754 5.125 39.5312V49.8438C5.125 50.2996 5.39498 50.7368 5.87554 51.0591C6.3561 51.3814 7.00788 51.5625 7.6875 51.5625H23.0625C23.7421 51.5625 24.3939 51.7436 24.8745 52.0659C25.355 52.3882 25.625 52.8254 25.625 53.2812C25.625 53.7371 25.355 54.1743 24.8745 54.4966C24.3939 54.8189 23.7421 55 23.0625 55H7.6875C5.64865 55 3.6933 54.4568 2.25162 53.4898C0.809931 52.5228 0 51.2113 0 49.8438L0 39.5312C0 39.0754 0.269977 38.6382 0.750539 38.3159C1.2311 37.9936 1.88288 37.8125 2.5625 37.8125ZM79.4375 37.8125C80.1171 37.8125 80.7689 37.9936 81.2495 38.3159C81.73 38.6382 82 39.0754 82 39.5312V49.8438C82 51.2113 81.1901 52.5228 79.7484 53.4898C78.3067 54.4568 76.3513 55 74.3125 55H58.9375C58.2579 55 57.6061 54.8189 57.1255 54.4966C56.645 54.1743 56.375 53.7371 56.375 53.2812C56.375 52.8254 56.645 52.3882 57.1255 52.0659C57.6061 51.7436 58.2579 51.5625 58.9375 51.5625H74.3125C74.9921 51.5625 75.6439 51.3814 76.1245 51.0591C76.605 50.7368 76.875 50.2996 76.875 49.8438V39.5312C76.875 39.0754 77.145 38.6382 77.6255 38.3159C78.1061 37.9936 78.7579 37.8125 79.4375 37.8125ZM15.375 15.4688C15.375 15.0129 15.645 14.5757 16.1255 14.2534C16.6061 13.9311 17.2579 13.75 17.9375 13.75C18.6171 13.75 19.2689 13.9311 19.7495 14.2534C20.23 14.5757 20.5 15.0129 20.5 15.4688V39.5312C20.5 39.9871 20.23 40.4243 19.7495 40.7466C19.2689 41.0689 18.6171 41.25 17.9375 41.25C17.2579 41.25 16.6061 41.0689 16.1255 40.7466C15.645 40.4243 15.375 39.9871 15.375 39.5312V15.4688ZM25.625 15.4688C25.625 15.0129 25.895 14.5757 26.3755 14.2534C26.8561 13.9311 27.5079 13.75 28.1875 13.75C28.8671 13.75 29.5189 13.9311 29.9995 14.2534C30.48 14.5757 30.75 15.0129 30.75 15.4688V39.5312C30.75 39.9871 30.48 40.4243 29.9995 40.7466C29.5189 41.0689 28.8671 41.25 28.1875 41.25C27.5079 41.25 26.8561 41.0689 26.3755 40.7466C25.895 40.4243 25.625 39.9871 25.625 39.5312V15.4688ZM35.875 15.4688C35.875 15.0129 36.145 14.5757 36.6255 14.2534C37.1061 13.9311 37.7579 13.75 38.4375 13.75C39.1171 13.75 39.7689 13.9311 40.2495 14.2534C40.73 14.5757 41 15.0129 41 15.4688V39.5312C41 39.9871 40.73 40.4243 40.2495 40.7466C39.7689 41.0689 39.1171 41.25 38.4375 41.25C37.7579 41.25 37.1061 41.0689 36.6255 40.7466C36.145 40.4243 35.875 39.9871 35.875 39.5312V15.4688ZM46.125 15.4688C46.125 15.0129 46.395 14.5757 46.8755 14.2534C47.3561 13.9311 48.0079 13.75 48.6875 13.75H53.8125C54.4921 13.75 55.1439 13.9311 55.6245 14.2534C56.105 14.5757 56.375 15.0129 56.375 15.4688V39.5312C56.375 39.9871 56.105 40.4243 55.6245 40.7466C55.1439 41.0689 54.4921 41.25 53.8125 41.25H48.6875C48.0079 41.25 47.3561 41.0689 46.8755 40.7466C46.395 40.4243 46.125 39.9871 46.125 39.5312V15.4688ZM61.5 15.4688C61.5 15.0129 61.77 14.5757 62.2505 14.2534C62.7311 13.9311 63.3829 13.75 64.0625 13.75C64.7421 13.75 65.3939 13.9311 65.8745 14.2534C66.355 14.5757 66.625 15.0129 66.625 15.4688V39.5312C66.625 39.9871 66.355 40.4243 65.8745 40.7466C65.3939 41.0689 64.7421 41.25 64.0625 41.25C63.3829 41.25 62.7311 41.0689 62.2505 40.7466C61.77 40.4243 61.5 39.9871 61.5 39.5312V15.4688Z" fill="black"/>
</svg>
