<svg width="82" height="55" viewBox="0 0 82 55" fill="none" xmlns="http://www.w3.org/2000/svg">
<rect width="82" height="55" fill="#641559"/>
<path d="M0 6.875C0 5.96332 0.539954 5.08898 1.50108 4.44432C2.4622 3.79966 3.76577 3.4375 5.125 3.4375H76.875C78.2342 3.4375 79.5378 3.79966 80.4989 4.44432C81.46 5.08898 82 5.96332 82 6.875V48.125C82 49.0367 81.46 49.911 80.4989 50.5557C79.5378 51.2003 78.2342 51.5625 76.875 51.5625H5.125C3.76577 51.5625 2.4622 51.2003 1.50108 50.5557C0.539954 49.911 0 49.0367 0 48.125V6.875ZM43.5625 6.875V34.375H76.875V6.875H43.5625ZM43.5625 37.8125V48.125H76.875V37.8125H43.5625ZM38.4375 6.875H5.125V17.1875H38.4375V6.875ZM5.125 48.125H38.4375V20.625H5.125V48.125Z" fill="black"/>
</svg>
