<svg width="82" height="55" viewBox="0 0 82 55" fill="none" xmlns="http://www.w3.org/2000/svg">
<rect width="82" height="55" fill="#641559"/>
<path d="M30.75 42.9688C30.75 42.5129 31.0199 42.0757 31.5005 41.7534C31.9811 41.4311 32.6329 41.25 33.3125 41.25H48.6875C49.3671 41.25 50.0189 41.4311 50.4994 41.7534C50.98 42.0757 51.25 42.5129 51.25 42.9688C51.25 43.4246 50.98 43.8618 50.4994 44.1841C50.0189 44.5064 49.3671 44.6875 48.6875 44.6875H33.3125C32.6329 44.6875 31.9811 44.5064 31.5005 44.1841C31.0199 43.8618 30.75 43.4246 30.75 42.9688ZM15.375 27.7131C15.375 23.2375 21.7043 19.8172 28.3412 20.2331C36.7621 20.7599 45.2378 20.7599 53.6587 20.2331C60.2956 19.8172 66.625 23.2375 66.625 27.7131V31.6903C66.649 32.4514 66.2674 33.1933 65.5487 33.7825C64.83 34.3717 63.8214 34.7695 62.7043 34.9044C58.3737 35.4097 50.7118 36.0938 41 36.0938C31.2881 36.0938 23.6262 35.4063 19.2956 34.9044C18.1786 34.7695 17.17 34.3717 16.4513 33.7825C15.7326 33.1933 15.3509 32.4514 15.375 31.6903V27.7131ZM38.6527 24.8703C38.453 24.8475 38.2481 24.8568 38.0547 24.8975C37.8614 24.9381 37.6852 25.0089 37.5406 25.1041L32.8256 28.1978C29.6187 28.0688 26.4201 27.859 23.2367 27.5688C22.9069 27.5468 22.5771 27.6114 22.3168 27.7491C22.0565 27.8867 21.8858 28.0867 21.8407 28.307C21.7956 28.5272 21.8795 28.7507 22.0749 28.9303C22.2702 29.11 22.5617 29.2318 22.8882 29.2703C25.707 29.5316 29.2022 29.7825 33.2407 29.9338C33.4186 29.9405 33.5966 29.9223 33.7634 29.8802C33.9302 29.8382 34.0821 29.7733 34.2093 29.6897L38.0736 27.1597L42.4145 33.0378C42.5059 33.1611 42.6402 33.2679 42.806 33.3491C42.9719 33.4304 43.1644 33.4837 43.3673 33.5046C43.5703 33.5254 43.7778 33.5133 43.9723 33.4692C44.1668 33.425 44.3426 33.3502 44.485 33.2509L49.2615 29.9166C52.5561 29.7863 55.8419 29.5707 59.1117 29.2703C59.4382 29.2318 59.7298 29.11 59.9251 28.9303C60.1204 28.7507 60.2044 28.5272 60.1592 28.307C60.1141 28.0867 59.9435 27.8867 59.6832 27.7491C59.4228 27.6114 59.0931 27.5468 58.7632 27.5688C56.006 27.8231 52.5774 28.0672 48.6157 28.2184C48.2932 28.2305 47.9893 28.3238 47.765 28.4797L43.9007 31.1781L39.5855 25.3344C39.4955 25.2132 39.3641 25.108 39.202 25.0274C39.0399 24.9468 38.8517 24.8929 38.6527 24.8703Z" fill="black"/>
<path d="M43.5625 6.41446C44.5395 6.03611 45.3031 5.45208 45.7349 4.75297C46.1666 4.05386 46.2424 3.27874 45.9504 2.54781C45.6584 1.81688 45.015 1.171 44.1199 0.710348C43.2249 0.249691 42.1282 0 41 0C39.8718 0 38.7752 0.249691 37.8801 0.710348C36.985 1.171 36.3416 1.81688 36.0496 2.54781C35.7576 3.27874 35.8334 4.05386 36.2651 4.75297C36.6969 5.45208 37.4605 6.03611 38.4375 6.41446V10.3126H28.1875C22.0709 10.3126 16.2049 11.9423 11.8798 14.8433C7.55479 17.7442 5.125 21.6788 5.125 25.7813V27.5001C3.76577 27.5001 2.4622 27.8623 1.50108 28.5069C0.539954 29.1516 0 30.0259 0 30.9376L0 37.8126C0 38.7243 0.539954 39.5986 1.50108 40.2433C2.4622 40.8879 3.76577 41.2501 5.125 41.2501V44.6876C5.125 46.511 6.20491 48.2596 8.12716 49.549C10.0494 50.8383 12.6565 51.5626 15.375 51.5626H66.625C69.3435 51.5626 71.9506 50.8383 73.8728 49.549C75.7951 48.2596 76.875 46.511 76.875 44.6876V41.2501C78.2342 41.2501 79.5378 40.8879 80.4989 40.2433C81.46 39.5986 82 38.7243 82 37.8126V30.9376C82 30.0259 81.46 29.1516 80.4989 28.5069C79.5378 27.8623 78.2342 27.5001 76.875 27.5001V25.7813C76.875 21.6788 74.4452 17.7442 70.1201 14.8433C65.7951 11.9423 59.9291 10.3126 53.8125 10.3126H43.5625V6.41446ZM71.75 25.7813V44.6876C71.75 45.5993 71.21 46.4736 70.2489 47.1183C69.2878 47.7629 67.9842 48.1251 66.625 48.1251H15.375C14.0158 48.1251 12.7122 47.7629 11.7511 47.1183C10.79 46.4736 10.25 45.5993 10.25 44.6876V25.7813C10.25 22.5905 12.1398 19.5303 15.5038 17.274C18.8677 15.0177 23.4302 13.7501 28.1875 13.7501H53.8125C58.5698 13.7501 63.1323 15.0177 66.4962 17.274C69.8602 19.5303 71.75 22.5905 71.75 25.7813Z" fill="black"/>
</svg>
