<svg width="103" height="103" viewBox="0 0 103 103" fill="none" xmlns="http://www.w3.org/2000/svg">
<rect x="0.5" y="0.5" width="102" height="102" rx="9.5" fill="#1E1E1E" stroke="#B21212"/>
<path d="M23.5 46C23.5 44.067 25.067 42.5 27 42.5H76C77.933 42.5 79.5 44.067 79.5 46C79.5 47.933 77.933 49.5 76 49.5H27C25.067 49.5 23.5 47.933 23.5 46Z" fill="#B21212"/>
<path d="M23.5 62C23.5 60.067 25.067 58.5 27 58.5H76C77.933 58.5 79.5 60.067 79.5 62C79.5 63.933 77.933 65.5 76 65.5H27C25.067 65.5 23.5 63.933 23.5 62Z" fill="#B21212"/>
</svg>
