<svg width="103" height="103" viewBox="0 0 103 103" fill="none" xmlns="http://www.w3.org/2000/svg">
<rect x="0.5" y="0.5" width="102" height="102" rx="9.5" fill="#1E1E1E" stroke="#D9D9D9"/>
<path d="M53 71.4773C50.4318 71.4773 48.2443 70.7784 46.4375 69.3807C44.6307 67.9716 43.25 65.9318 42.2955 63.2614C41.3409 60.5795 40.8636 57.3409 40.8636 53.5455C40.8636 49.7727 41.3409 46.5511 42.2955 43.8807C43.2614 41.1989 44.6477 39.1534 46.4545 37.7443C48.2727 36.3239 50.4545 35.6136 53 35.6136C55.5455 35.6136 57.7216 36.3239 59.5284 37.7443C61.3466 39.1534 62.733 41.1989 63.6875 43.8807C64.6534 46.5511 65.1364 49.7727 65.1364 53.5455C65.1364 57.3409 64.6591 60.5795 63.7045 63.2614C62.75 65.9318 61.3693 67.9716 59.5625 69.3807C57.7557 70.7784 55.5682 71.4773 53 71.4773ZM53 67.7273C55.5455 67.7273 57.5227 66.5 58.9318 64.0455C60.3409 61.5909 61.0455 58.0909 61.0455 53.5455C61.0455 50.5227 60.7216 47.9489 60.0739 45.8239C59.4375 43.6989 58.517 42.0795 57.3125 40.9659C56.1193 39.8523 54.6818 39.2955 53 39.2955C50.4773 39.2955 48.5057 40.5398 47.0852 43.0284C45.6648 45.5057 44.9545 49.0114 44.9545 53.5455C44.9545 56.5682 45.2727 59.1364 45.9091 61.25C46.5455 63.3636 47.4602 64.9716 48.6534 66.0739C49.858 67.1761 51.3068 67.7273 53 67.7273Z" fill="white"/>
</svg>
