<svg width="103" height="97" viewBox="0 0 103 97" fill="none" xmlns="http://www.w3.org/2000/svg">
<rect x="0.5" y="0.5" width="102" height="96" rx="9.5" fill="#1E1E1E" stroke="#B21212"/>
<path d="M60.9318 49H57.4091C57.2008 47.9867 56.8362 47.0966 56.3153 46.3295C55.804 45.5625 55.179 44.9186 54.4403 44.3977C53.7112 43.8674 52.9015 43.4697 52.0114 43.2045C51.1212 42.9394 50.1932 42.8068 49.2273 42.8068C47.4659 42.8068 45.8703 43.2519 44.4403 44.142C43.0199 45.0322 41.8883 46.3438 41.0455 48.0767C40.2121 49.8097 39.7955 51.9356 39.7955 54.4545C39.7955 56.9735 40.2121 59.0994 41.0455 60.8324C41.8883 62.5653 43.0199 63.8769 44.4403 64.767C45.8703 65.6572 47.4659 66.1023 49.2273 66.1023C50.1932 66.1023 51.1212 65.9697 52.0114 65.7045C52.9015 65.4394 53.7112 65.0464 54.4403 64.5256C55.179 63.9953 55.804 63.3466 56.3153 62.5795C56.8362 61.803 57.2008 60.9129 57.4091 59.9091H60.9318C60.6667 61.3958 60.1837 62.7263 59.483 63.9006C58.7822 65.0748 57.911 66.0739 56.8693 66.8977C55.8277 67.7121 54.6581 68.3324 53.3608 68.7585C52.0729 69.1847 50.6951 69.3977 49.2273 69.3977C46.7462 69.3977 44.5398 68.7917 42.608 67.5795C40.6761 66.3674 39.1563 64.6439 38.0483 62.4091C36.9403 60.1742 36.3864 57.5227 36.3864 54.4545C36.3864 51.3864 36.9403 48.7348 38.0483 46.5C39.1563 44.2652 40.6761 42.5417 42.608 41.3295C44.5398 40.1174 46.7462 39.5114 49.2273 39.5114C50.6951 39.5114 52.0729 39.7244 53.3608 40.1506C54.6581 40.5767 55.8277 41.2017 56.8693 42.0256C57.911 42.84 58.7822 43.8343 59.483 45.0085C60.1837 46.1733 60.6667 47.5038 60.9318 49Z" fill="#B21212"/>
</svg>
