<svg width="103" height="103" viewBox="0 0 103 103" fill="none" xmlns="http://www.w3.org/2000/svg">
<rect x="0.5" y="0.5" width="102" height="102" rx="9.5" fill="#F59E0B" stroke="#00BBFF"/>
<path d="M22.5 49C22.5 47.067 24.067 45.5 26 45.5H75C76.933 45.5 78.5 47.067 78.5 49C78.5 50.933 76.933 52.5 75 52.5H26C24.067 52.5 22.5 50.933 22.5 49Z" fill="black"/>
<path d="M23.5 67C23.5 65.067 25.067 63.5 27 63.5H76C77.933 63.5 79.5 65.067 79.5 67C79.5 68.933 77.933 70.5 76 70.5H27C25.067 70.5 23.5 68.933 23.5 67Z" fill="black"/>
</svg>
