<svg width="103" height="93" viewBox="0 0 103 93" fill="none" xmlns="http://www.w3.org/2000/svg">
<rect x="0.5" y="0.5" width="102" height="92" rx="9.5" fill="#F59E0B" stroke="#00B3FF"/>
<path d="M57 30.5C57 33.5376 54.5376 36 51.5 36C48.4624 36 46 33.5376 46 30.5C46 27.4624 48.4624 25 51.5 25C54.5376 25 57 27.4624 57 30.5Z" fill="black"/>
<path d="M57 65.5C57 68.5376 54.5376 71 51.5 71C48.4624 71 46 68.5376 46 65.5C46 62.4624 48.4624 60 51.5 60C54.5376 60 57 62.4624 57 65.5Z" fill="black"/>
<path d="M23.5 48C23.5 46.067 25.067 44.5 27 44.5H76C77.933 44.5 79.5 46.067 79.5 48C79.5 49.933 77.933 51.5 76 51.5H27C25.067 51.5 23.5 49.933 23.5 48Z" fill="black"/>
</svg>
