<svg width="103" height="103" viewBox="0 0 103 103" fill="none" xmlns="http://www.w3.org/2000/svg">
<rect x="0.5" y="0.5" width="102" height="102" rx="9.5" fill="#CA8A00" stroke="black"/>
<path d="M51.2045 72.4773C49.7727 72.4545 48.3409 72.1818 46.9091 71.6591C45.4773 71.1364 44.1705 70.2557 42.9886 69.017C41.8068 67.767 40.858 66.0795 40.142 63.9545C39.4261 61.8182 39.0682 59.1364 39.0682 55.9091C39.0682 52.8182 39.358 50.0795 39.9375 47.6932C40.517 45.2955 41.358 43.2784 42.4602 41.642C43.5625 39.9943 44.892 38.7443 46.4489 37.892C48.017 37.0398 49.7841 36.6136 51.75 36.6136C53.7045 36.6136 55.4432 37.0057 56.9659 37.7898C58.5 38.5625 59.75 39.642 60.7159 41.0284C61.6818 42.4148 62.3068 44.0114 62.5909 45.8182H58.4318C58.0455 44.25 57.2955 42.9489 56.1818 41.9148C55.0682 40.8807 53.5909 40.3636 51.75 40.3636C49.0455 40.3636 46.9148 41.5398 45.358 43.892C43.8125 46.2443 43.0341 49.5455 43.0227 53.7955H43.2955C43.9318 52.8295 44.6875 52.0057 45.5625 51.3239C46.4489 50.6307 47.4261 50.0966 48.4943 49.7216C49.5625 49.3466 50.6932 49.1591 51.8864 49.1591C53.8864 49.1591 55.7159 49.6591 57.375 50.6591C59.0341 51.6477 60.3636 53.017 61.3636 54.767C62.3636 56.5057 62.8636 58.5 62.8636 60.75C62.8636 62.9091 62.3807 64.8864 61.4148 66.6818C60.4489 68.4659 59.0909 69.8864 57.3409 70.9432C55.6023 71.9886 53.5568 72.5 51.2045 72.4773ZM51.2045 68.7273C52.6364 68.7273 53.9205 68.3693 55.0568 67.6534C56.2045 66.9375 57.108 65.9773 57.767 64.7727C58.4375 63.5682 58.7727 62.2273 58.7727 60.75C58.7727 59.3068 58.4489 57.9943 57.8011 56.8125C57.1648 55.6193 56.2841 54.6705 55.1591 53.9659C54.0455 53.2614 52.7727 52.9091 51.3409 52.9091C50.2614 52.9091 49.2557 53.125 48.3239 53.5568C47.392 53.9773 46.5739 54.5568 45.8693 55.2955C45.1761 56.0341 44.6307 56.8807 44.233 57.8352C43.8352 58.7784 43.6364 59.7727 43.6364 60.8182C43.6364 62.2045 43.9602 63.5 44.608 64.7045C45.267 65.9091 46.1648 66.8807 47.3011 67.6193C48.4489 68.358 49.75 68.7273 51.2045 68.7273Z" fill="black"/>
</svg>
