<svg width="103" height="93" viewBox="0 0 103 93" fill="none" xmlns="http://www.w3.org/2000/svg">
<rect x="0.5" y="0.5" width="102" height="92" rx="9.5" fill="#F59E0B" stroke="#00BBFF"/>
<path d="M60.9318 44H57.4091C57.2008 42.9867 56.8362 42.0966 56.3153 41.3295C55.804 40.5625 55.179 39.9186 54.4403 39.3977C53.7112 38.8674 52.9015 38.4697 52.0114 38.2045C51.1212 37.9394 50.1932 37.8068 49.2273 37.8068C47.4659 37.8068 45.8703 38.2519 44.4403 39.142C43.0199 40.0322 41.8883 41.3438 41.0455 43.0767C40.2121 44.8097 39.7955 46.9356 39.7955 49.4545C39.7955 51.9735 40.2121 54.0994 41.0455 55.8324C41.8883 57.5653 43.0199 58.8769 44.4403 59.767C45.8703 60.6572 47.4659 61.1023 49.2273 61.1023C50.1932 61.1023 51.1212 60.9697 52.0114 60.7045C52.9015 60.4394 53.7112 60.0464 54.4403 59.5256C55.179 58.9953 55.804 58.3466 56.3153 57.5795C56.8362 56.803 57.2008 55.9129 57.4091 54.9091H60.9318C60.6667 56.3958 60.1837 57.7263 59.483 58.9006C58.7822 60.0748 57.911 61.0739 56.8693 61.8977C55.8277 62.7121 54.6581 63.3324 53.3608 63.7585C52.0729 64.1847 50.6951 64.3977 49.2273 64.3977C46.7462 64.3977 44.5398 63.7917 42.608 62.5795C40.6761 61.3674 39.1563 59.6439 38.0483 57.4091C36.9403 55.1742 36.3864 52.5227 36.3864 49.4545C36.3864 46.3864 36.9403 43.7348 38.0483 41.5C39.1563 39.2652 40.6761 37.5417 42.608 36.3295C44.5398 35.1174 46.7462 34.5114 49.2273 34.5114C50.6951 34.5114 52.0729 34.7244 53.3608 35.1506C54.6581 35.5767 55.8277 36.2017 56.8693 37.0256C57.911 37.84 58.7822 38.8343 59.483 40.0085C60.1837 41.1733 60.6667 42.5038 60.9318 44Z" fill="black"/>
</svg>
