<svg width="103" height="103" viewBox="0 0 103 103" fill="none" xmlns="http://www.w3.org/2000/svg">
<rect x="0.5" y="0.5" width="102" height="102" rx="9.5" fill="#CA8A00" stroke="black"/>
<path d="M50.7273 36.6136C52.1591 36.625 53.5909 36.8977 55.0227 37.4318C56.4545 37.9659 57.7614 38.8523 58.9432 40.0909C60.125 41.3182 61.0739 42.9943 61.7898 45.1193C62.5057 47.2443 62.8636 49.9091 62.8636 53.1136C62.8636 56.2159 62.5682 58.9716 61.9773 61.3807C61.3977 63.7784 60.5568 65.8011 59.4545 67.4489C58.3636 69.0966 57.0341 70.3466 55.4659 71.1989C53.9091 72.0511 52.1477 72.4773 50.1818 72.4773C48.2273 72.4773 46.483 72.0909 44.9489 71.3182C43.4261 70.5341 42.1761 69.4489 41.1989 68.0625C40.233 66.6648 39.6136 65.0455 39.3409 63.2045H43.5C43.875 64.8068 44.6193 66.1307 45.733 67.1761C46.858 68.2102 48.3409 68.7273 50.1818 68.7273C52.875 68.7273 55 67.5511 56.5568 65.1989C58.125 62.8466 58.9091 59.5227 58.9091 55.2273H58.6364C58 56.1818 57.2443 57.0057 56.3693 57.6989C55.4943 58.392 54.5227 58.9261 53.4545 59.3011C52.3864 59.6761 51.25 59.8636 50.0455 59.8636C48.0455 59.8636 46.2102 59.3693 44.5398 58.3807C42.8807 57.3807 41.5511 56.0114 40.5511 54.2727C39.5625 52.5227 39.0682 50.5227 39.0682 48.2727C39.0682 46.1364 39.5455 44.1818 40.5 42.4091C41.4659 40.625 42.8182 39.2045 44.5568 38.1477C46.3068 37.0909 48.3636 36.5795 50.7273 36.6136ZM50.7273 40.3636C49.2955 40.3636 48.0057 40.7216 46.858 41.4375C45.7216 42.142 44.8182 43.0966 44.1477 44.3011C43.4886 45.4943 43.1591 46.8182 43.1591 48.2727C43.1591 49.7273 43.4773 51.0511 44.1136 52.2443C44.7614 53.4261 45.642 54.3693 46.7557 55.0739C47.8807 55.767 49.1591 56.1136 50.5909 56.1136C51.6705 56.1136 52.6761 55.9034 53.608 55.483C54.5398 55.0511 55.3523 54.4659 56.0455 53.7273C56.75 52.9773 57.3011 52.1307 57.6989 51.1875C58.0966 50.233 58.2955 49.2386 58.2955 48.2045C58.2955 46.8409 57.9659 45.5625 57.3068 44.3693C56.6591 43.1761 55.7614 42.2102 54.6136 41.4716C53.4773 40.733 52.1818 40.3636 50.7273 40.3636Z" fill="black"/>
</svg>
