<svg width="24" height="24" viewBox="0 0 24 24" fill="none" xmlns="http://www.w3.org/2000/svg">
<path d="M11.5 5.423V2.039H12.5V5.423H11.5ZM16.996 7.712L16.314 7.029L18.671 4.577L19.398 5.31L16.996 7.712ZM18.577 12.5V11.5H21.962V12.5H18.577ZM11.5 21.962V18.596H12.5V21.962H11.5ZM7.042 7.68L4.577 5.329L5.329 4.621L7.73 7.004L7.042 7.68ZM18.666 19.422L16.314 16.97L16.991 16.313L19.379 18.659L18.666 19.422ZM2.039 12.5V11.5H5.423V12.5H2.039ZM5.309 19.423L4.621 18.671L6.979 16.314L7.339 16.662L7.717 17.016L5.309 19.423ZM12.006 17C10.618 17 9.43667 16.5143 8.462 15.543C7.48733 14.5717 7 13.3923 7 12.005C7 10.6177 7.48567 9.436 8.457 8.46C9.42833 7.484 10.6077 6.99733 11.995 7C13.3823 7.00267 14.5637 7.48833 15.539 8.457C16.5143 9.42567 17.0013 10.605 17 11.995C16.9987 13.385 16.513 14.5663 15.543 15.539C14.573 16.5117 13.3947 16.9987 12.006 17Z" fill="#B21212"/>
</svg>
