<svg width="360" height="380" viewBox="0 0 360 380" fill="none" xmlns="http://www.w3.org/2000/svg">
<rect width="360" height="380" fill="#66D6FF"/>
<g clip-path="url(#clip0_7_77)">
<path d="M148.185 172.756C146.2 162.812 141.063 153.758 133.528 146.921C125.992 140.084 116.453 135.82 106.304 134.755C96.155 133.689 85.929 135.877 77.1212 140.998C68.3135 146.119 61.3858 153.906 57.3511 163.218C52.8265 162.701 48.2431 163.106 43.8816 164.409C39.52 165.712 35.4721 167.886 31.9856 170.797C28.4992 173.709 25.6475 177.297 23.6053 181.341C21.5631 185.385 20.3732 189.801 20.1086 194.318C19.8441 198.836 20.5103 203.359 22.0665 207.611C23.6228 211.864 26.0363 215.756 29.1593 219.049C32.2823 222.343 36.0491 224.969 40.2291 226.766C44.4091 228.562 48.9142 229.493 53.4688 229.5H144.313C151.591 229.508 158.6 226.768 163.92 221.834C169.241 216.9 172.475 210.142 172.967 202.928C173.459 195.714 171.173 188.584 166.572 182.982C161.971 177.38 155.398 173.724 148.185 172.756Z" fill="white" fill-opacity="0.5"/>
</g>
<g clip-path="url(#clip1_7_77)">
<path d="M314.185 171.756C312.2 161.812 307.063 152.758 299.528 145.921C291.992 139.084 282.453 134.82 272.304 133.755C262.155 132.689 251.929 134.877 243.121 139.998C234.313 145.119 227.386 152.906 223.351 162.218C218.827 161.701 214.243 162.106 209.882 163.409C205.52 164.712 201.472 166.886 197.986 169.797C194.499 172.709 191.648 176.297 189.605 180.341C187.563 184.385 186.373 188.801 186.109 193.318C185.844 197.836 186.51 202.359 188.067 206.611C189.623 210.864 192.036 214.756 195.159 218.049C198.282 221.343 202.049 223.969 206.229 225.766C210.409 227.562 214.914 228.493 219.469 228.5H310.313C317.591 228.508 324.6 225.768 329.92 220.834C335.241 215.9 338.475 209.142 338.967 201.928C339.459 194.714 337.173 187.584 332.572 181.982C327.971 176.38 321.398 172.724 314.185 171.756Z" fill="white" fill-opacity="0.5"/>
</g>
<path d="M234.133 189.265C232.147 179.32 227.011 170.267 219.476 163.43C211.94 156.592 202.401 152.329 192.252 151.263C182.103 150.198 171.877 152.385 163.069 157.507C154.261 162.628 147.334 170.414 143.299 179.727C138.774 179.209 134.191 179.614 129.829 180.917C125.468 182.221 121.42 184.394 117.934 187.306C114.447 190.217 111.595 193.805 109.553 197.85C107.511 201.894 106.321 206.31 106.057 210.827C105.792 215.344 106.458 219.867 108.014 224.12C109.571 228.372 111.984 232.264 115.107 235.558C118.23 238.851 121.997 241.477 126.177 243.274C130.357 245.071 134.862 246.002 139.417 246.009H230.26C237.538 246.017 244.548 243.277 249.868 238.343C255.189 233.409 258.423 226.651 258.915 219.437C259.407 212.223 257.121 205.092 252.52 199.49C247.919 193.888 241.346 190.233 234.133 189.265Z" fill="url(#paint0_linear_7_77)"/>
<defs>
<linearGradient id="paint0_linear_7_77" x1="182.49" y1="151" x2="182.49" y2="246.009" gradientUnits="userSpaceOnUse">
<stop stop-color="#A8EFFF"/>
<stop offset="1" stop-color="#999999"/>
</linearGradient>
<clipPath id="clip0_7_77">
<rect width="153" height="152" fill="white" transform="translate(20 106)"/>
</clipPath>
<clipPath id="clip1_7_77">
<rect width="153" height="152" fill="white" transform="translate(186 105)"/>
</clipPath>
</defs>
</svg>
