<svg width="26" height="37" viewBox="0 0 26 37" fill="none" xmlns="http://www.w3.org/2000/svg">
<path d="M13 36.4773C10.4318 36.4773 8.24432 35.7784 6.4375 34.3807C4.63068 32.9716 3.25 30.9318 2.29545 28.2614C1.34091 25.5795 0.863636 22.3409 0.863636 18.5455C0.863636 14.7727 1.34091 11.5511 2.29545 8.88068C3.26136 6.19886 4.64773 4.15341 6.45455 2.74432C8.27273 1.32386 10.4545 0.613635 13 0.613635C15.5455 0.613635 17.7216 1.32386 19.5284 2.74432C21.3466 4.15341 22.733 6.19886 23.6875 8.88068C24.6534 11.5511 25.1364 14.7727 25.1364 18.5455C25.1364 22.3409 24.6591 25.5795 23.7045 28.2614C22.75 30.9318 21.3693 32.9716 19.5625 34.3807C17.7557 35.7784 15.5682 36.4773 13 36.4773ZM13 32.7273C15.5455 32.7273 17.5227 31.5 18.9318 29.0455C20.3409 26.5909 21.0455 23.0909 21.0455 18.5455C21.0455 15.5227 20.7216 12.9489 20.0739 10.8239C19.4375 8.69886 18.517 7.07954 17.3125 5.96591C16.1193 4.85227 14.6818 4.29545 13 4.29545C10.4773 4.29545 8.50568 5.53977 7.08523 8.02841C5.66477 10.5057 4.95455 14.0114 4.95455 18.5455C4.95455 21.5682 5.27273 24.1364 5.90909 26.25C6.54545 28.3636 7.46023 29.9716 8.65341 31.0739C9.85795 32.1761 11.3068 32.7273 13 32.7273Z" fill="white"/>
</svg>
