<svg width="103" height="103" viewBox="0 0 103 103" fill="none" xmlns="http://www.w3.org/2000/svg">
<rect x="0.5" y="0.5" width="102" height="102" rx="9.5" fill="#1E1E1E" stroke="#D9D9D9"/>
<path d="M54.2045 71.4773C52.7727 71.4545 51.3409 71.1818 49.9091 70.6591C48.4773 70.1364 47.1705 69.2557 45.9886 68.017C44.8068 66.767 43.858 65.0795 43.142 62.9545C42.4261 60.8182 42.0682 58.1364 42.0682 54.9091C42.0682 51.8182 42.358 49.0795 42.9375 46.6932C43.517 44.2955 44.358 42.2784 45.4602 40.642C46.5625 38.9943 47.892 37.7443 49.4489 36.892C51.017 36.0398 52.7841 35.6136 54.75 35.6136C56.7045 35.6136 58.4432 36.0057 59.9659 36.7898C61.5 37.5625 62.75 38.642 63.7159 40.0284C64.6818 41.4148 65.3068 43.0114 65.5909 44.8182H61.4318C61.0455 43.25 60.2955 41.9489 59.1818 40.9148C58.0682 39.8807 56.5909 39.3636 54.75 39.3636C52.0455 39.3636 49.9148 40.5398 48.358 42.892C46.8125 45.2443 46.0341 48.5455 46.0227 52.7955H46.2955C46.9318 51.8295 47.6875 51.0057 48.5625 50.3239C49.4489 49.6307 50.4261 49.0966 51.4943 48.7216C52.5625 48.3466 53.6932 48.1591 54.8864 48.1591C56.8864 48.1591 58.7159 48.6591 60.375 49.6591C62.0341 50.6477 63.3636 52.017 64.3636 53.767C65.3636 55.5057 65.8636 57.5 65.8636 59.75C65.8636 61.9091 65.3807 63.8864 64.4148 65.6818C63.4489 67.4659 62.0909 68.8864 60.3409 69.9432C58.6023 70.9886 56.5568 71.5 54.2045 71.4773ZM54.2045 67.7273C55.6364 67.7273 56.9205 67.3693 58.0568 66.6534C59.2045 65.9375 60.108 64.9773 60.767 63.7727C61.4375 62.5682 61.7727 61.2273 61.7727 59.75C61.7727 58.3068 61.4489 56.9943 60.8011 55.8125C60.1648 54.6193 59.2841 53.6705 58.1591 52.9659C57.0455 52.2614 55.7727 51.9091 54.3409 51.9091C53.2614 51.9091 52.2557 52.125 51.3239 52.5568C50.392 52.9773 49.5739 53.5568 48.8693 54.2955C48.1761 55.0341 47.6307 55.8807 47.233 56.8352C46.8352 57.7784 46.6364 58.7727 46.6364 59.8182C46.6364 61.2045 46.9602 62.5 47.608 63.7045C48.267 64.9091 49.1648 65.8807 50.3011 66.6193C51.4489 67.358 52.75 67.7273 54.2045 67.7273Z" fill="white"/>
</svg>
