<svg width="103" height="103" viewBox="0 0 103 103" fill="none" xmlns="http://www.w3.org/2000/svg">
<rect x="0.5" y="0.5" width="102" height="102" rx="9.5" fill="#CA8A00" stroke="black"/>
<path d="M53 76.4773C50.4318 76.4773 48.2443 75.7784 46.4375 74.3807C44.6307 72.9716 43.25 70.9318 42.2955 68.2614C41.3409 65.5795 40.8636 62.3409 40.8636 58.5455C40.8636 54.7727 41.3409 51.5511 42.2955 48.8807C43.2614 46.1989 44.6477 44.1534 46.4545 42.7443C48.2727 41.3239 50.4545 40.6136 53 40.6136C55.5455 40.6136 57.7216 41.3239 59.5284 42.7443C61.3466 44.1534 62.733 46.1989 63.6875 48.8807C64.6534 51.5511 65.1364 54.7727 65.1364 58.5455C65.1364 62.3409 64.6591 65.5795 63.7045 68.2614C62.75 70.9318 61.3693 72.9716 59.5625 74.3807C57.7557 75.7784 55.5682 76.4773 53 76.4773ZM53 72.7273C55.5455 72.7273 57.5227 71.5 58.9318 69.0455C60.3409 66.5909 61.0455 63.0909 61.0455 58.5455C61.0455 55.5227 60.7216 52.9489 60.0739 50.8239C59.4375 48.6989 58.517 47.0795 57.3125 45.9659C56.1193 44.8523 54.6818 44.2955 53 44.2955C50.4773 44.2955 48.5057 45.5398 47.0852 48.0284C45.6648 50.5057 44.9545 54.0114 44.9545 58.5455C44.9545 61.5682 45.2727 64.1364 45.9091 66.25C46.5455 68.3636 47.4602 69.9716 48.6534 71.0739C49.858 72.1761 51.3068 72.7273 53 72.7273Z" fill="black"/>
</svg>
