<svg width="103" height="103" viewBox="0 0 103 103" fill="none" xmlns="http://www.w3.org/2000/svg">
<rect x="0.5" y="0.5" width="102" height="102" rx="9.5" fill="#1E1E1E" stroke="#D9D9D9"/>
<path d="M54.4091 71.4773C52.1591 71.4773 50.1534 71.0909 48.392 70.3182C46.642 69.5455 45.25 68.4716 44.2159 67.0966C43.1932 65.7102 42.6364 64.1023 42.5455 62.2727H46.8409C46.9318 63.3977 47.3182 64.3693 48 65.1875C48.6818 65.9943 49.5739 66.6193 50.6761 67.0625C51.7784 67.5057 53 67.7273 54.3409 67.7273C55.8409 67.7273 57.1705 67.4659 58.3295 66.9432C59.4886 66.4205 60.3977 65.6932 61.0568 64.7614C61.7159 63.8295 62.0455 62.75 62.0455 61.5227C62.0455 60.2386 61.7273 59.108 61.0909 58.1307C60.4545 57.142 59.5227 56.3693 58.2955 55.8125C57.0682 55.2557 55.5682 54.9773 53.7955 54.9773H51V51.2273H53.7955C55.1818 51.2273 56.3977 50.9773 57.4432 50.4773C58.5 49.9773 59.3239 49.2727 59.9148 48.3636C60.517 47.4545 60.8182 46.3864 60.8182 45.1591C60.8182 43.9773 60.5568 42.9489 60.0341 42.0739C59.5114 41.1989 58.7727 40.517 57.8182 40.0284C56.875 39.5398 55.7614 39.2955 54.4773 39.2955C53.2727 39.2955 52.1364 39.517 51.0682 39.9602C50.0114 40.392 49.1477 41.0227 48.4773 41.8523C47.8068 42.6705 47.4432 43.6591 47.3864 44.8182H43.2955C43.3636 42.9886 43.9148 41.3864 44.9489 40.0114C45.983 38.625 47.3352 37.5455 49.0057 36.7727C50.6875 36 52.5341 35.6136 54.5455 35.6136C56.7045 35.6136 58.5568 36.0511 60.1023 36.9261C61.6477 37.7898 62.8352 38.9318 63.6648 40.3523C64.4943 41.7727 64.9091 43.3068 64.9091 44.9545C64.9091 46.9205 64.392 48.5966 63.358 49.983C62.3352 51.3693 60.9432 52.3295 59.1818 52.8636V53.1364C61.3864 53.5 63.108 54.4375 64.3466 55.9489C65.5852 57.4489 66.2045 59.3068 66.2045 61.5227C66.2045 63.4205 65.6875 65.125 64.6534 66.6364C63.6307 68.1364 62.233 69.3182 60.4602 70.1818C58.6875 71.0455 56.6705 71.4773 54.4091 71.4773Z" fill="white"/>
</svg>
