<svg width="103" height="103" viewBox="0 0 103 103" fill="none" xmlns="http://www.w3.org/2000/svg">
<rect x="0.5" y="0.5" width="102" height="102" rx="9.5" fill="#CA8A00" stroke="black"/>
<path d="M52.5227 72.4773C50.5227 72.4773 48.7216 72.0795 47.1193 71.2841C45.517 70.4886 44.233 69.3977 43.267 68.0114C42.3011 66.625 41.7727 65.0455 41.6818 63.2727H45.7727C45.9318 64.8523 46.6477 66.1591 47.9205 67.1932C49.2045 68.2159 50.7386 68.7273 52.5227 68.7273C53.9545 68.7273 55.2273 68.392 56.3409 67.7216C57.4659 67.0511 58.3466 66.1307 58.983 64.9602C59.6307 63.7784 59.9545 62.4432 59.9545 60.9545C59.9545 59.4318 59.6193 58.0739 58.9489 56.8807C58.2898 55.6761 57.3807 54.7273 56.2216 54.0341C55.0625 53.3409 53.7386 52.9886 52.25 52.9773C51.1818 52.9659 50.0852 53.1307 48.9602 53.4716C47.8352 53.8011 46.9091 54.2273 46.1818 54.75L42.2273 54.2727L44.3409 37.0909H62.4773V40.8409H47.8864L46.6591 51.1364H46.8636C47.5795 50.5682 48.4773 50.0966 49.5568 49.7216C50.6364 49.3466 51.7614 49.1591 52.9318 49.1591C55.0682 49.1591 56.9716 49.6705 58.642 50.6932C60.3239 51.7045 61.642 53.0909 62.5966 54.8523C63.5625 56.6136 64.0455 58.625 64.0455 60.8864C64.0455 63.1136 63.5455 65.1023 62.5455 66.8523C61.5568 68.5909 60.1932 69.9659 58.4545 70.9773C56.7159 71.9773 54.7386 72.4773 52.5227 72.4773Z" fill="black"/>
</svg>
