<svg width="103" height="103" viewBox="0 0 103 103" fill="none" xmlns="http://www.w3.org/2000/svg">
<rect x="0.5" y="0.5" width="102" height="102" rx="9.5" fill="#1E1E1E" stroke="#D9D9D9"/>
<path d="M52.5227 71.4773C50.5227 71.4773 48.7216 71.0795 47.1193 70.2841C45.517 69.4886 44.233 68.3977 43.267 67.0114C42.3011 65.625 41.7727 64.0455 41.6818 62.2727H45.7727C45.9318 63.8523 46.6477 65.1591 47.9205 66.1932C49.2045 67.2159 50.7386 67.7273 52.5227 67.7273C53.9545 67.7273 55.2273 67.392 56.3409 66.7216C57.4659 66.0511 58.3466 65.1307 58.983 63.9602C59.6307 62.7784 59.9545 61.4432 59.9545 59.9545C59.9545 58.4318 59.6193 57.0739 58.9489 55.8807C58.2898 54.6761 57.3807 53.7273 56.2216 53.0341C55.0625 52.3409 53.7386 51.9886 52.25 51.9773C51.1818 51.9659 50.0852 52.1307 48.9602 52.4716C47.8352 52.8011 46.9091 53.2273 46.1818 53.75L42.2273 53.2727L44.3409 36.0909H62.4773V39.8409H47.8864L46.6591 50.1364H46.8636C47.5795 49.5682 48.4773 49.0966 49.5568 48.7216C50.6364 48.3466 51.7614 48.1591 52.9318 48.1591C55.0682 48.1591 56.9716 48.6705 58.642 49.6932C60.3239 50.7045 61.642 52.0909 62.5966 53.8523C63.5625 55.6136 64.0455 57.625 64.0455 59.8864C64.0455 62.1136 63.5455 64.1023 62.5455 65.8523C61.5568 67.5909 60.1932 68.9659 58.4545 69.9773C56.7159 70.9773 54.7386 71.4773 52.5227 71.4773Z" fill="white"/>
</svg>
