<svg width="103" height="97" viewBox="0 0 103 97" fill="none" xmlns="http://www.w3.org/2000/svg">
<rect x="0.5" y="0.5" width="102" height="96" rx="9.5" fill="#1E1E1E" stroke="#B21212"/>
<path d="M57 30.5C57 33.5376 54.5376 36 51.5 36C48.4624 36 46 33.5376 46 30.5C46 27.4624 48.4624 25 51.5 25C54.5376 25 57 27.4624 57 30.5Z" fill="#B21212"/>
<path d="M57 66.5C57 69.5376 54.5376 72 51.5 72C48.4624 72 46 69.5376 46 66.5C46 63.4624 48.4624 61 51.5 61C54.5376 61 57 63.4624 57 66.5Z" fill="#B21212"/>
<path d="M23.5 48C23.5 46.067 25.067 44.5 27 44.5H76C77.933 44.5 79.5 46.067 79.5 48C79.5 49.933 77.933 51.5 76 51.5H27C25.067 51.5 23.5 49.933 23.5 48Z" fill="#B21212"/>
</svg>
