<svg width="103" height="103" viewBox="0 0 103 103" fill="none" xmlns="http://www.w3.org/2000/svg">
<rect x="0.5" y="0.5" width="102" height="102" rx="9.5" fill="#CA8A00" stroke="black"/>
<path d="M42.6136 71V67.9318L54.1364 55.3182C55.4886 53.8409 56.6023 52.5568 57.4773 51.4659C58.3523 50.3636 59 49.3295 59.4205 48.3636C59.8523 47.3864 60.0682 46.3636 60.0682 45.2955C60.0682 44.0682 59.7727 43.0057 59.1818 42.108C58.6023 41.2102 57.8068 40.517 56.7955 40.0284C55.7841 39.5398 54.6477 39.2955 53.3864 39.2955C52.0455 39.2955 50.875 39.5739 49.875 40.1307C48.8864 40.6761 48.1193 41.4432 47.5739 42.4318C47.0398 43.4205 46.7727 44.5795 46.7727 45.9091H42.75C42.75 43.8636 43.2216 42.0682 44.1648 40.5227C45.108 38.9773 46.392 37.7727 48.017 36.9091C49.6534 36.0455 51.4886 35.6136 53.5227 35.6136C55.5682 35.6136 57.3807 36.0455 58.9602 36.9091C60.5398 37.7727 61.7784 38.9375 62.6761 40.4034C63.5739 41.8693 64.0227 43.5 64.0227 45.2955C64.0227 46.5795 63.7898 47.8352 63.3239 49.0625C62.8693 50.2784 62.0739 51.6364 60.9375 53.1364C59.8125 54.625 58.25 56.4432 56.25 58.5909L48.4091 66.9773V67.25H64.6364V71H42.6136Z" fill="black"/>
</svg>
