<svg width="103" height="93" viewBox="0 0 103 93" fill="none" xmlns="http://www.w3.org/2000/svg">
<rect x="0.5" y="0.5" width="102" height="92" rx="9.5" fill="#F59E0B" stroke="#00BBFF"/>
<path d="M74 78.75C69.1675 78.75 65.25 74.8325 65.25 70C65.25 65.1675 69.1675 61.25 74 61.25C78.8325 61.25 82.75 65.1675 82.75 70C82.75 74.8325 78.8325 78.75 74 78.75ZM74 80C79.5228 80 84 75.5228 84 70C84 64.4772 79.5228 60 74 60C68.4772 60 64 64.4772 64 70C64 75.5228 68.4772 80 74 80Z" fill="black"/>
<path d="M34 38.75C29.1675 38.75 25.25 34.8325 25.25 30C25.25 25.1675 29.1675 21.25 34 21.25C38.8325 21.25 42.75 25.1675 42.75 30C42.75 34.8325 38.8325 38.75 34 38.75ZM34 40C39.5228 40 44 35.5228 44 30C44 24.4772 39.5228 20 34 20C28.4772 20 24 24.4772 24 30C24 35.5228 28.4772 40 34 40Z" fill="black"/>
<path d="M74.357 24.6429C75.6588 25.9447 75.6588 28.0552 74.357 29.357L34.357 69.357C33.0553 70.6587 30.9447 70.6587 29.643 69.357C28.3413 68.0552 28.3413 65.9447 29.643 64.6429L69.643 24.6429C70.9447 23.3412 73.0553 23.3412 74.357 24.6429Z" fill="black"/>
</svg>
