<svg width="103" height="103" viewBox="0 0 103 103" fill="none" xmlns="http://www.w3.org/2000/svg">
<rect x="0.5" y="0.5" width="102" height="102" rx="9.5" fill="#1E1E1E" stroke="#D9D9D9"/>
<path d="M53.7273 35.6136C55.1591 35.625 56.5909 35.8977 58.0227 36.4318C59.4545 36.9659 60.7614 37.8523 61.9432 39.0909C63.125 40.3182 64.0739 41.9943 64.7898 44.1193C65.5057 46.2443 65.8636 48.9091 65.8636 52.1136C65.8636 55.2159 65.5682 57.9716 64.9773 60.3807C64.3977 62.7784 63.5568 64.8011 62.4545 66.4489C61.3636 68.0966 60.0341 69.3466 58.4659 70.1989C56.9091 71.0511 55.1477 71.4773 53.1818 71.4773C51.2273 71.4773 49.483 71.0909 47.9489 70.3182C46.4261 69.5341 45.1761 68.4489 44.1989 67.0625C43.233 65.6648 42.6136 64.0455 42.3409 62.2045H46.5C46.875 63.8068 47.6193 65.1307 48.733 66.1761C49.858 67.2102 51.3409 67.7273 53.1818 67.7273C55.875 67.7273 58 66.5511 59.5568 64.1989C61.125 61.8466 61.9091 58.5227 61.9091 54.2273H61.6364C61 55.1818 60.2443 56.0057 59.3693 56.6989C58.4943 57.392 57.5227 57.9261 56.4545 58.3011C55.3864 58.6761 54.25 58.8636 53.0455 58.8636C51.0455 58.8636 49.2102 58.3693 47.5398 57.3807C45.8807 56.3807 44.5511 55.0114 43.5511 53.2727C42.5625 51.5227 42.0682 49.5227 42.0682 47.2727C42.0682 45.1364 42.5455 43.1818 43.5 41.4091C44.4659 39.625 45.8182 38.2045 47.5568 37.1477C49.3068 36.0909 51.3636 35.5795 53.7273 35.6136ZM53.7273 39.3636C52.2955 39.3636 51.0057 39.7216 49.858 40.4375C48.7216 41.142 47.8182 42.0966 47.1477 43.3011C46.4886 44.4943 46.1591 45.8182 46.1591 47.2727C46.1591 48.7273 46.4773 50.0511 47.1136 51.2443C47.7614 52.4261 48.642 53.3693 49.7557 54.0739C50.8807 54.767 52.1591 55.1136 53.5909 55.1136C54.6705 55.1136 55.6761 54.9034 56.608 54.483C57.5398 54.0511 58.3523 53.4659 59.0455 52.7273C59.75 51.9773 60.3011 51.1307 60.6989 50.1875C61.0966 49.233 61.2955 48.2386 61.2955 47.2045C61.2955 45.8409 60.9659 44.5625 60.3068 43.3693C59.6591 42.1761 58.7614 41.2102 57.6136 40.4716C56.4773 39.733 55.1818 39.3636 53.7273 39.3636Z" fill="white"/>
</svg>
