<svg width="103" height="103" viewBox="0 0 103 103" fill="none" xmlns="http://www.w3.org/2000/svg">
<rect x="0.5" y="0.5" width="102" height="102" rx="9.5" fill="#F59E0B" stroke="#00BBFF"/>
<path d="M28.5251 24.5251C29.892 23.1583 32.108 23.1583 33.4749 24.5251L52 43.0503L70.5251 24.5251C71.892 23.1583 74.108 23.1583 75.4749 24.5251C76.8417 25.892 76.8417 28.108 75.4749 29.4749L56.9497 48L75.4749 66.5251C76.8417 67.892 76.8417 70.108 75.4749 71.4749C74.108 72.8417 71.892 72.8417 70.5251 71.4749L52 52.9497L33.4749 71.4749C32.108 72.8417 29.892 72.8417 28.5251 71.4749C27.1583 70.108 27.1583 67.892 28.5251 66.5251L47.0503 48L28.5251 29.4749C27.1583 28.108 27.1583 25.892 28.5251 24.5251Z" fill="black"/>
</svg>
