<svg width="103" height="97" viewBox="0 0 103 97" fill="none" xmlns="http://www.w3.org/2000/svg">
<rect x="0.5" y="0.5" width="102" height="96" rx="9.5" fill="#1E1E1E" stroke="#B21212"/>
<path d="M74 79.75C69.1675 79.75 65.25 75.8325 65.25 71C65.25 66.1675 69.1675 62.25 74 62.25C78.8325 62.25 82.75 66.1675 82.75 71C82.75 75.8325 78.8325 79.75 74 79.75ZM74 81C79.5228 81 84 76.5228 84 71C84 65.4772 79.5228 61 74 61C68.4772 61 64 65.4772 64 71C64 76.5228 68.4772 81 74 81Z" fill="#B21212"/>
<path d="M31 38.75C26.1675 38.75 22.25 34.8325 22.25 30C22.25 25.1675 26.1675 21.25 31 21.25C35.8325 21.25 39.75 25.1675 39.75 30C39.75 34.8325 35.8325 38.75 31 38.75ZM31 40C36.5228 40 41 35.5228 41 30C41 24.4772 36.5228 20 31 20C25.4772 20 21 24.4772 21 30C21 35.5228 25.4772 40 31 40Z" fill="#B21212"/>
<path d="M73.357 27.6429C74.6588 28.9447 74.6588 31.0552 73.357 32.357L33.357 72.357C32.0553 73.6587 29.9447 73.6587 28.643 72.357C27.3412 71.0552 27.3412 68.9447 28.643 67.6429L68.643 27.6429C69.9447 26.3412 72.0553 26.3412 73.357 27.6429Z" fill="#B21212"/>
</svg>
