<svg width="103" height="103" viewBox="0 0 103 103" fill="none" xmlns="http://www.w3.org/2000/svg">
<rect x="0.5" y="0.5" width="102" height="102" rx="9.5" fill="#1E1E1E" stroke="#D9D9D9"/>
<path d="M52.7955 71.4773C50.4545 71.4773 48.3864 71.0625 46.5909 70.233C44.8068 69.392 43.4148 68.2386 42.4148 66.7727C41.4148 65.2955 40.9205 63.6136 40.9318 61.7273C40.9205 60.25 41.2102 58.8864 41.8011 57.6364C42.392 56.375 43.1989 55.3239 44.2216 54.483C45.2557 53.6307 46.4091 53.0909 47.6818 52.8636V52.6591C46.0114 52.2273 44.6818 51.2898 43.6932 49.8466C42.7045 48.392 42.2159 46.7386 42.2273 44.8864C42.2159 43.1136 42.6648 41.5284 43.5739 40.1307C44.483 38.733 45.733 37.6307 47.3239 36.8239C48.9261 36.017 50.75 35.6136 52.7955 35.6136C54.8182 35.6136 56.625 36.017 58.2159 36.8239C59.8068 37.6307 61.0568 38.733 61.9659 40.1307C62.8864 41.5284 63.3523 43.1136 63.3636 44.8864C63.3523 46.7386 62.8466 48.392 61.8466 49.8466C60.858 51.2898 59.5455 52.2273 57.9091 52.6591V52.8636C59.1705 53.0909 60.3068 53.6307 61.3182 54.483C62.3295 55.3239 63.1364 56.375 63.7386 57.6364C64.3409 58.8864 64.6477 60.25 64.6591 61.7273C64.6477 63.6136 64.1364 65.2955 63.125 66.7727C62.125 68.2386 60.733 69.392 58.9489 70.233C57.1761 71.0625 55.125 71.4773 52.7955 71.4773ZM52.7955 67.7273C54.375 67.7273 55.7386 67.4716 56.8864 66.9602C58.0341 66.4489 58.9205 65.7273 59.5455 64.7955C60.1705 63.8636 60.4886 62.7727 60.5 61.5227C60.4886 60.2045 60.1477 59.0398 59.4773 58.0284C58.8068 57.017 57.892 56.2216 56.733 55.642C55.5852 55.0625 54.2727 54.7727 52.7955 54.7727C51.3068 54.7727 49.9773 55.0625 48.8068 55.642C47.6477 56.2216 46.733 57.017 46.0625 58.0284C45.4034 59.0398 45.0795 60.2045 45.0909 61.5227C45.0795 62.7727 45.3807 63.8636 45.9943 64.7955C46.6193 65.7273 47.5114 66.4489 48.6705 66.9602C49.8295 67.4716 51.2045 67.7273 52.7955 67.7273ZM52.7955 51.1591C54.0455 51.1591 55.1534 50.9091 56.1193 50.4091C57.0966 49.9091 57.8636 49.2102 58.4205 48.3125C58.9773 47.4148 59.2614 46.3636 59.2727 45.1591C59.2614 43.9773 58.983 42.9489 58.4375 42.0739C57.892 41.1875 57.1364 40.5057 56.1705 40.0284C55.2045 39.5398 54.0795 39.2955 52.7955 39.2955C51.4886 39.2955 50.3466 39.5398 49.3693 40.0284C48.392 40.5057 47.6364 41.1875 47.1023 42.0739C46.5682 42.9489 46.3068 43.9773 46.3182 45.1591C46.3068 46.3636 46.5739 47.4148 47.1193 48.3125C47.6761 49.2102 48.4432 49.9091 49.4205 50.4091C50.3977 50.9091 51.5227 51.1591 52.7955 51.1591Z" fill="white"/>
</svg>
