<svg width="103" height="103" viewBox="0 0 103 103" fill="none" xmlns="http://www.w3.org/2000/svg">
<rect x="0.5" y="0.5" width="102" height="102" rx="9.5" fill="#1E1E1E" stroke="#B21212"/>
<path d="M31.9376 29.9376C33.0766 28.7986 34.9234 28.7986 36.0624 29.9376L51.5 45.3753L66.9376 29.9376C68.0766 28.7986 69.9234 28.7986 71.0624 29.9376C72.2014 31.0767 72.2014 32.9234 71.0624 34.0624L55.6248 49.5L71.0624 64.9376C72.2014 66.0767 72.2014 67.9234 71.0624 69.0624C69.9234 70.2015 68.0766 70.2015 66.9376 69.0624L51.5 53.6248L36.0624 69.0624C34.9234 70.2015 33.0766 70.2015 31.9376 69.0624C30.7986 67.9234 30.7986 66.0767 31.9376 64.9376L47.3752 49.5L31.9376 34.0624C30.7986 32.9234 30.7986 31.0767 31.9376 29.9376Z" fill="#B21212"/>
</svg>
