<svg width="103" height="97" viewBox="0 0 103 97" fill="none" xmlns="http://www.w3.org/2000/svg">
<rect x="0.5" y="0.5" width="102" height="96" rx="9.5" fill="#1E1E1E" stroke="#B21212"/>
<path d="M46.3021 43.8311C45.7895 44.3558 45.7895 45.2067 46.3021 45.7314L51.9365 51.5L46.3021 57.2686C45.7895 57.7933 45.7895 58.6442 46.3021 59.1689C46.8147 59.6937 47.6457 59.6937 48.1582 59.1689L53.7927 53.4004L59.4271 59.1689C59.9397 59.6937 60.7707 59.6937 61.2832 59.1689C61.7958 58.6442 61.7958 57.7933 61.2832 57.2686L55.6488 51.5L61.2832 45.7314C61.7958 45.2067 61.7958 44.3558 61.2832 43.8311C60.7707 43.3063 59.9397 43.3063 59.4271 43.8311L53.7927 49.5996L48.1582 43.8311C47.6457 43.3063 46.8147 43.3063 46.3021 43.8311Z" fill="#B21212"/>
<path d="M66.9177 32.6875C69.8172 32.6875 72.1677 35.094 72.1677 38.0625V64.9375C72.1677 67.906 69.8172 70.3125 66.9177 70.3125H48.3323C46.7997 70.3125 45.3436 69.6269 44.3462 68.4355L31.632 53.249C30.7893 52.2426 30.7893 50.7574 31.632 49.751L44.3462 34.5645C45.3436 33.3731 46.7997 32.6875 48.3323 32.6875H66.9177ZM48.3323 35.375C47.566 35.375 46.838 35.7178 46.3393 36.3135L33.625 51.5L46.3393 66.6865C46.838 67.2822 47.566 67.625 48.3323 67.625H66.9177C68.3674 67.625 69.5427 66.4218 69.5427 64.9375V38.0625C69.5427 36.5782 68.3674 35.375 66.9177 35.375H48.3323Z" fill="#B21212"/>
</svg>
