<svg width="90" height="27" viewBox="0 0 90 27" fill="none" xmlns="http://www.w3.org/2000/svg">
<rect width="90" height="27" rx="13.5" fill="#B19494" fill-opacity="0.78"/>
<g clip-path="url(#clip0_16_52)">
<path d="M69.5 16.6016C71.7652 16.6016 73.6016 14.7652 73.6016 12.5C73.6016 10.2348 71.7652 8.39844 69.5 8.39844C67.2348 8.39844 65.3984 10.2348 65.3984 12.5C65.3984 14.7652 67.2348 16.6016 69.5 16.6016Z" fill="url(#paint0_linear_16_52)" stroke="#F8AF18" stroke-width="0.1875" stroke-miterlimit="10"/>
<path d="M73.9988 8.00116L75.7148 6.28518M63.2852 18.7148L65.0012 16.9988M75.8667 12.5H78.2836M60.7164 12.5L63.1402 12.5M69.5069 6.13326V3.71639M69.5069 21.2905V18.8667M65.0012 8.00116L63.2852 6.28518M75.7148 18.7148L73.9988 16.9988" stroke="#FBBF24" stroke-width="0.75" stroke-miterlimit="10" stroke-linecap="round"/>
</g>
<path d="M17 17C18.0609 17 19.0783 16.5786 19.8284 15.8284C20.5786 15.0783 21 14.0609 21 13C21 11.9391 20.5786 10.9217 19.8284 10.1716C19.0783 9.42143 18.0609 9 17 9C15.9391 9 14.9217 9.42143 14.1716 10.1716C13.4214 10.9217 13 11.9391 13 13C13 14.0609 13.4214 15.0783 14.1716 15.8284C14.9217 16.5786 15.9391 17 17 17Z" fill="black" fill-opacity="0.16"/>
<path d="M17 5V3M17 23V21M9 13H7M27 13H25M11.34 18.66L9.93 20.07M24.07 5.93L22.66 7.34M22.66 18.66L24.07 20.07M9.93 5.93L11.34 7.34M21 13C21 14.0609 20.5786 15.0783 19.8284 15.8284C19.0783 16.5786 18.0609 17 17 17C15.9391 17 14.9217 16.5786 14.1716 15.8284C13.4214 15.0783 13 14.0609 13 13C13 11.9391 13.4214 10.9217 14.1716 10.1716C14.9217 9.42143 15.9391 9 17 9C18.0609 9 19.0783 9.42143 19.8284 10.1716C20.5786 10.9217 21 11.9391 21 13Z" stroke="black" stroke-width="1.5" stroke-miterlimit="10" stroke-linecap="round"/>
<defs>
<linearGradient id="paint0_linear_16_52" x1="67.4492" y1="8.94531" x2="71.5508" y2="16.0547" gradientUnits="userSpaceOnUse">
<stop stop-color="#FBBF24"/>
<stop offset="0.5" stop-color="#FBBF24"/>
<stop offset="1" stop-color="#F59E0B"/>
</linearGradient>
<clipPath id="clip0_16_52">
<rect width="18.75" height="18.75" fill="white" transform="translate(60.125 3.125)"/>
</clipPath>
</defs>
</svg>
