<svg width="103" height="93" viewBox="0 0 103 93" fill="none" xmlns="http://www.w3.org/2000/svg">
<path d="M10 0.5H93C98.2467 0.5 102.5 4.7533 102.5 10V83C102.5 88.2467 98.2467 92.5 93 92.5H10C4.7533 92.5 0.5 88.2467 0.5 83V10C0.500001 4.7533 4.7533 0.5 10 0.5Z" fill="#F59E0B" stroke="#00BBFF"/>
<path d="M72.1677 36.0625C72.1677 33.094 69.8172 30.6875 66.9177 30.6875H48.3323C46.7997 30.6875 45.3436 31.3731 44.3462 32.5645L31.632 47.751C30.7893 48.7574 30.7893 50.2426 31.632 51.249L44.3462 66.4355C45.3436 67.6269 46.7997 68.3125 48.3323 68.3125H66.9177C69.8172 68.3125 72.1677 65.906 72.1677 62.9375V36.0625ZM46.3021 43.7314C45.7895 43.2067 45.7895 42.3558 46.3021 41.8311C46.8147 41.3063 47.6457 41.3063 48.1582 41.8311L53.7927 47.5997L59.4271 41.8311C59.9397 41.3063 60.7707 41.3063 61.2832 41.8311C61.7958 42.3558 61.7958 43.2067 61.2832 43.7314L55.6488 49.5L61.2832 55.2686C61.7958 55.7933 61.7958 56.6442 61.2832 57.1689C60.7707 57.6937 59.9397 57.6937 59.4271 57.1689L53.7927 51.4004L48.1582 57.1689C47.6457 57.6937 46.8147 57.6937 46.3021 57.1689C45.7895 56.6442 45.7895 55.7933 46.3021 55.2686L51.9365 49.5L46.3021 43.7314Z" fill="black"/>
</svg>
