<svg width="103" height="103" viewBox="0 0 103 103" fill="none" xmlns="http://www.w3.org/2000/svg">
<rect x="0.5" y="0.5" width="102" height="102" rx="9.5" fill="#1E1E1E" stroke="#D9D9D9"/>
<path d="M41.6136 71V67.9318L53.1364 55.3182C54.4886 53.8409 55.6023 52.5568 56.4773 51.4659C57.3523 50.3636 58 49.3295 58.4205 48.3636C58.8523 47.3864 59.0682 46.3636 59.0682 45.2955C59.0682 44.0682 58.7727 43.0057 58.1818 42.108C57.6023 41.2102 56.8068 40.517 55.7955 40.0284C54.7841 39.5398 53.6477 39.2955 52.3864 39.2955C51.0455 39.2955 49.875 39.5739 48.875 40.1307C47.8864 40.6761 47.1193 41.4432 46.5739 42.4318C46.0398 43.4205 45.7727 44.5795 45.7727 45.9091H41.75C41.75 43.8636 42.2216 42.0682 43.1648 40.5227C44.108 38.9773 45.392 37.7727 47.017 36.9091C48.6534 36.0455 50.4886 35.6136 52.5227 35.6136C54.5682 35.6136 56.3807 36.0455 57.9602 36.9091C59.5398 37.7727 60.7784 38.9375 61.6761 40.4034C62.5739 41.8693 63.0227 43.5 63.0227 45.2955C63.0227 46.5795 62.7898 47.8352 62.3239 49.0625C61.8693 50.2784 61.0739 51.6364 59.9375 53.1364C58.8125 54.625 57.25 56.4432 55.25 58.5909L47.4091 66.9773V67.25H63.6364V71H41.6136Z" fill="white"/>
</svg>
