<svg width="103" height="103" viewBox="0 0 103 103" fill="none" xmlns="http://www.w3.org/2000/svg">
<rect x="0.5" y="0.5" width="102" height="102" rx="9.5" fill="#CA8A00" stroke="black"/>
<path d="M52.7955 73.4773C50.4545 73.4773 48.3864 73.0625 46.5909 72.233C44.8068 71.392 43.4148 70.2386 42.4148 68.7727C41.4148 67.2955 40.9205 65.6136 40.9318 63.7273C40.9205 62.25 41.2102 60.8864 41.8011 59.6364C42.392 58.375 43.1989 57.3239 44.2216 56.483C45.2557 55.6307 46.4091 55.0909 47.6818 54.8636V54.6591C46.0114 54.2273 44.6818 53.2898 43.6932 51.8466C42.7045 50.392 42.2159 48.7386 42.2273 46.8864C42.2159 45.1136 42.6648 43.5284 43.5739 42.1307C44.483 40.733 45.733 39.6307 47.3239 38.8239C48.9261 38.017 50.75 37.6136 52.7955 37.6136C54.8182 37.6136 56.625 38.017 58.2159 38.8239C59.8068 39.6307 61.0568 40.733 61.9659 42.1307C62.8864 43.5284 63.3523 45.1136 63.3636 46.8864C63.3523 48.7386 62.8466 50.392 61.8466 51.8466C60.858 53.2898 59.5455 54.2273 57.9091 54.6591V54.8636C59.1705 55.0909 60.3068 55.6307 61.3182 56.483C62.3295 57.3239 63.1364 58.375 63.7386 59.6364C64.3409 60.8864 64.6477 62.25 64.6591 63.7273C64.6477 65.6136 64.1364 67.2955 63.125 68.7727C62.125 70.2386 60.733 71.392 58.9489 72.233C57.1761 73.0625 55.125 73.4773 52.7955 73.4773ZM52.7955 69.7273C54.375 69.7273 55.7386 69.4716 56.8864 68.9602C58.0341 68.4489 58.9205 67.7273 59.5455 66.7955C60.1705 65.8636 60.4886 64.7727 60.5 63.5227C60.4886 62.2045 60.1477 61.0398 59.4773 60.0284C58.8068 59.017 57.892 58.2216 56.733 57.642C55.5852 57.0625 54.2727 56.7727 52.7955 56.7727C51.3068 56.7727 49.9773 57.0625 48.8068 57.642C47.6477 58.2216 46.733 59.017 46.0625 60.0284C45.4034 61.0398 45.0795 62.2045 45.0909 63.5227C45.0795 64.7727 45.3807 65.8636 45.9943 66.7955C46.6193 67.7273 47.5114 68.4489 48.6705 68.9602C49.8295 69.4716 51.2045 69.7273 52.7955 69.7273ZM52.7955 53.1591C54.0455 53.1591 55.1534 52.9091 56.1193 52.4091C57.0966 51.9091 57.8636 51.2102 58.4205 50.3125C58.9773 49.4148 59.2614 48.3636 59.2727 47.1591C59.2614 45.9773 58.983 44.9489 58.4375 44.0739C57.892 43.1875 57.1364 42.5057 56.1705 42.0284C55.2045 41.5398 54.0795 41.2955 52.7955 41.2955C51.4886 41.2955 50.3466 41.5398 49.3693 42.0284C48.392 42.5057 47.6364 43.1875 47.1023 44.0739C46.5682 44.9489 46.3068 45.9773 46.3182 47.1591C46.3068 48.3636 46.5739 49.4148 47.1193 50.3125C47.6761 51.2102 48.4432 51.9091 49.4205 52.4091C50.3977 52.9091 51.5227 53.1591 52.7955 53.1591Z" fill="black"/>
</svg>
