<svg width="329" height="176" viewBox="0 0 329 176" fill="none" xmlns="http://www.w3.org/2000/svg">
<g clip-path="url(#clip0_2_7)">
<path d="M128.185 66.7565C126.2 56.8115 121.063 47.7585 113.528 40.921C105.992 34.0836 96.4528 29.8204 86.3039 28.7547C76.155 27.689 65.929 29.8768 57.1213 34.9981C48.3135 40.1194 41.3858 47.9057 37.3511 57.2185C32.8265 56.7007 28.2431 57.1057 23.8816 58.4089C19.52 59.7121 15.4721 61.8859 11.9856 64.7974C8.49916 67.7088 5.64752 71.2966 3.60529 75.341C1.56306 79.3854 0.373236 83.8013 0.108649 88.3184C-0.155938 92.8356 0.510287 97.3588 2.06653 101.611C3.62278 105.864 6.0363 109.756 9.15932 113.049C12.2823 116.343 16.0491 118.969 20.2291 120.766C24.4091 122.562 28.9142 123.493 33.4688 123.5H124.313C131.591 123.508 138.6 120.768 143.92 115.834C149.241 110.9 152.475 104.142 152.967 96.928C153.459 89.7141 151.173 82.5838 146.572 76.9817C141.971 71.3796 135.398 67.7244 128.185 66.7565Z" fill="url(#paint0_linear_2_7)"/>
<path d="M6.67461 39.461L9.82461 37.561L12.9746 39.486L12.1496 35.886L14.9246 33.486L11.2746 33.161L9.82461 29.761L8.37461 33.136L4.72461 33.461L7.49961 35.886L6.67461 39.461ZM9.82461 38.738L6.19461 40.93C6.08794 40.9827 5.98894 41.004 5.89761 40.994C5.80694 40.9833 5.71861 40.952 5.63261 40.9C5.54594 40.8467 5.48061 40.7713 5.43661 40.674C5.39261 40.5767 5.38861 40.4703 5.42461 40.355L6.39061 36.245L3.19561 33.475C3.10561 33.4017 3.04628 33.314 3.01761 33.212C2.98894 33.11 2.99528 33.0123 3.03661 32.919C3.07794 32.8257 3.13294 32.749 3.20161 32.689C3.27094 32.631 3.36428 32.5917 3.48161 32.571L7.69761 32.203L9.34161 28.311C9.38694 28.201 9.45228 28.1217 9.53761 28.073C9.62294 28.0243 9.71861 28 9.82461 28C9.93061 28 10.0266 28.0243 10.1126 28.073C10.1986 28.1217 10.2636 28.201 10.3076 28.311L11.9516 32.203L16.1666 32.571C16.2846 32.591 16.3783 32.6307 16.4476 32.69C16.5169 32.7487 16.5723 32.825 16.6136 32.919C16.6543 33.0123 16.6603 33.11 16.6316 33.212C16.6029 33.314 16.5436 33.4017 16.4536 33.475L13.2586 36.245L14.2246 40.355C14.2619 40.469 14.2583 40.575 14.2136 40.673C14.1689 40.771 14.1033 40.8463 14.0166 40.899C13.9313 40.9523 13.8429 40.984 13.7516 40.994C13.6609 41.004 13.5623 40.9827 13.4556 40.93L9.82461 38.738Z" fill="white"/>
<path d="M119.675 21.461L122.825 19.561L125.975 21.486L125.15 17.886L127.925 15.486L124.275 15.161L122.825 11.761L121.375 15.136L117.725 15.461L120.5 17.886L119.675 21.461ZM122.825 20.738L119.195 22.93C119.088 22.9827 118.989 23.004 118.898 22.994C118.807 22.9833 118.719 22.952 118.633 22.9C118.546 22.8467 118.481 22.7713 118.437 22.674C118.393 22.5767 118.389 22.4703 118.425 22.355L119.391 18.245L116.196 15.475C116.106 15.4017 116.046 15.314 116.018 15.212C115.989 15.11 115.995 15.0123 116.037 14.919C116.078 14.8257 116.133 14.749 116.202 14.689C116.271 14.631 116.364 14.5917 116.482 14.571L120.698 14.203L122.342 10.311C122.387 10.201 122.452 10.1217 122.538 10.073C122.623 10.0243 122.719 10 122.825 10C122.931 10 123.027 10.0243 123.113 10.073C123.199 10.1217 123.264 10.201 123.308 10.311L124.952 14.203L129.167 14.571C129.285 14.591 129.378 14.6307 129.448 14.69C129.517 14.7487 129.572 14.825 129.614 14.919C129.654 15.0123 129.66 15.11 129.632 15.212C129.603 15.314 129.544 15.4017 129.454 15.475L126.259 18.245L127.225 22.355C127.262 22.469 127.258 22.575 127.214 22.673C127.169 22.771 127.103 22.8463 127.017 22.899C126.931 22.9523 126.843 22.984 126.752 22.994C126.661 23.004 126.562 22.9827 126.456 22.93L122.825 20.738Z" fill="white"/>
<path d="M62.1537 12.9367L64 11.621L65.8462 12.9541L65.3626 10.4611L66.9891 8.79905L64.8498 8.57399L64 6.21949L63.1501 8.55668L61.0108 8.78174L62.6373 10.4611L62.1537 12.9367ZM64 12.4361L61.8724 13.954C61.8099 13.9905 61.7518 14.0053 61.6983 13.9983C61.6452 13.991 61.5934 13.9693 61.543 13.9332C61.4922 13.8963 61.4539 13.8441 61.4281 13.7767C61.4023 13.7093 61.4 13.6357 61.4211 13.5558L61.9873 10.7097L60.1146 8.79144C60.0619 8.74065 60.0271 8.67994 60.0103 8.60931C59.9935 8.53867 59.9972 8.47104 60.0215 8.40641C60.0457 8.34177 60.0779 8.28868 60.1182 8.24713C60.1588 8.20697 60.2135 8.17973 60.2823 8.16542L62.7533 7.91058L63.7169 5.21537C63.7434 5.13919 63.7817 5.08425 63.8317 5.05055C63.8818 5.01685 63.9378 5 64 5C64.0621 5 64.1183 5.01685 64.1687 5.05055C64.2192 5.08425 64.2573 5.13919 64.283 5.21537L65.2466 7.91058L67.717 8.16542C67.7862 8.17927 67.8411 8.20674 67.8817 8.24782C67.9224 8.28845 67.9548 8.34131 67.979 8.40641C68.0029 8.47104 68.0064 8.53867 67.9896 8.60931C67.9728 8.67994 67.938 8.74065 67.8853 8.79144L66.0126 10.7097L66.5788 13.5558C66.6007 13.6348 66.5986 13.7082 66.5724 13.7761C66.5462 13.8439 66.5077 13.8961 66.4569 13.9326C66.4069 13.9695 66.3551 13.9914 66.3016 13.9983C66.2485 14.0053 66.1906 13.9905 66.1281 13.954L64 12.4361Z" fill="white"/>
<path d="M23.8845 26.0549L25.5 24.8853L27.1154 26.0703L26.6923 23.8543L28.1155 22.3769L26.2436 22.1769L25.5 20.084L24.7563 22.1615L22.8845 22.3615L24.3076 23.8543L23.8845 26.0549ZM25.5 25.6098L23.6383 26.9591C23.5836 26.9916 23.5329 27.0047 23.486 26.9985C23.4395 26.992 23.3942 26.9727 23.3501 26.9407C23.3057 26.9078 23.2722 26.8615 23.2496 26.8015C23.227 26.7416 23.225 26.6762 23.2434 26.6052L23.7389 24.0753L22.1003 22.3702C22.0542 22.325 22.0237 22.2711 22.009 22.2083C21.9943 22.1455 21.9976 22.0854 22.0188 22.0279C22.04 21.9705 22.0682 21.9233 22.1034 21.8863C22.139 21.8506 22.1868 21.8264 22.247 21.8137L24.4091 21.5872L25.2523 19.1914C25.2755 19.1237 25.309 19.0749 25.3528 19.0449C25.3965 19.015 25.4456 19 25.5 19C25.5543 19 25.6036 19.015 25.6477 19.0449C25.6918 19.0749 25.7251 19.1237 25.7477 19.1914L26.5908 21.5872L28.7524 21.8137C28.8129 21.826 28.861 21.8504 28.8965 21.887C28.9321 21.9231 28.9605 21.9701 28.9817 22.0279C29.0025 22.0854 29.0056 22.1455 28.9909 22.2083C28.9762 22.2711 28.9458 22.325 28.8996 22.3702L27.2611 24.0753L27.7565 26.6052C27.7756 26.6754 27.7737 26.7406 27.7508 26.8009C27.7279 26.8613 27.6942 26.9076 27.6498 26.94C27.606 26.9729 27.5607 26.9924 27.5139 26.9985C27.4674 27.0047 27.4168 26.9916 27.3621 26.9591L25.5 25.6098Z" fill="white"/>
<path d="M8.15371 9.29116L9.99995 8.41399L11.8462 9.3027L11.3626 7.6407L12.9891 6.5327L10.8498 6.38266L9.99995 4.81299L9.1501 6.37112L7.01081 6.52116L8.63725 7.6407L8.15371 9.29116ZM9.99995 8.95737L7.87238 9.96935C7.80986 9.99366 7.75184 10.0035 7.69831 9.99889C7.64517 9.99397 7.5934 9.97951 7.54299 9.9555C7.49219 9.93088 7.4539 9.8961 7.42811 9.85116C7.40232 9.80623 7.39998 9.75714 7.42108 9.70389L7.98726 7.80644L6.11465 6.52762C6.0619 6.49377 6.02712 6.4533 6.01032 6.40621C5.99352 6.35912 5.99723 6.31403 6.02146 6.27094C6.04568 6.22785 6.07792 6.19245 6.11816 6.16475C6.1588 6.13798 6.2135 6.11982 6.28227 6.11028L8.7533 5.94038L9.71686 4.14358C9.74343 4.0928 9.78172 4.05617 9.83174 4.0337C9.88175 4.01123 9.93782 4 9.99995 4C10.0621 4 10.1183 4.01123 10.1687 4.0337C10.2192 4.05617 10.2573 4.0928 10.283 4.14358L11.2466 5.94038L13.717 6.11028C13.7862 6.11951 13.8411 6.13782 13.8817 6.16522C13.9224 6.1923 13.9548 6.22754 13.979 6.27094C14.0029 6.31403 14.0064 6.35912 13.9896 6.40621C13.9728 6.4533 13.938 6.49377 13.8853 6.52762L12.0126 7.80644L12.5788 9.70389C12.6007 9.75652 12.5986 9.80546 12.5724 9.8507C12.5462 9.89594 12.5077 9.93072 12.4569 9.95504C12.4069 9.97966 12.3551 9.99428 12.3016 9.99889C12.2485 10.0035 12.1906 9.99366 12.1281 9.96935L9.99995 8.95737Z" fill="white"/>
</g>
<g clip-path="url(#clip1_2_7)">
<path d="M304.185 72.7565C302.2 62.8115 297.063 53.7585 289.528 46.921C281.992 40.0836 272.453 35.8204 262.304 34.7547C252.155 33.689 241.929 35.8768 233.121 40.9981C224.313 46.1194 217.386 53.9057 213.351 63.2185C208.827 62.7007 204.243 63.1057 199.882 64.4089C195.52 65.7121 191.472 67.8859 187.986 70.7974C184.499 73.7088 181.648 77.2966 179.605 81.341C177.563 85.3854 176.373 89.8013 176.109 94.3184C175.844 98.8356 176.51 103.359 178.067 107.611C179.623 111.864 182.036 115.756 185.159 119.049C188.282 122.343 192.049 124.969 196.229 126.766C200.409 128.562 204.914 129.493 209.469 129.5H300.313C307.591 129.508 314.6 126.768 319.92 121.834C325.241 116.9 328.475 110.142 328.967 102.928C329.459 95.7141 327.173 88.5838 322.572 82.9817C317.971 77.3796 311.398 73.7244 304.185 72.7565Z" fill="url(#paint1_linear_2_7)"/>
<path d="M304.185 72.7565C302.2 62.8115 297.063 53.7585 289.528 46.921C281.992 40.0836 272.453 35.8204 262.304 34.7547C252.155 33.689 241.929 35.8768 233.121 40.9981C224.313 46.1194 217.386 53.9057 213.351 63.2185C208.827 62.7007 204.243 63.1057 199.882 64.4089C195.52 65.7121 191.472 67.8859 187.986 70.7974C184.499 73.7088 181.648 77.2966 179.605 81.341C177.563 85.3854 176.373 89.8013 176.109 94.3184C175.844 98.8356 176.51 103.359 178.067 107.611C179.623 111.864 182.036 115.756 185.159 119.049C188.282 122.343 192.049 124.969 196.229 126.766C200.409 128.562 204.914 129.493 209.469 129.5H300.313C307.591 129.508 314.6 126.768 319.92 121.834C325.241 116.9 328.475 110.142 328.967 102.928C329.459 95.7141 327.173 88.5838 322.572 82.9817C317.971 77.3796 311.398 73.7244 304.185 72.7565Z" fill="url(#paint2_linear_2_7)"/>
<path d="M228.961 15.7005L231.5 14.0923L234.039 15.7216L233.374 12.6746L235.61 10.6433L232.668 10.3682L231.5 7.49049L230.331 10.3471L227.39 10.6221L229.626 12.6746L228.961 15.7005ZM231.5 15.0885L228.575 16.9438C228.489 16.9884 228.409 17.0064 228.335 16.998C228.262 16.9889 228.191 16.9624 228.122 16.9184C228.052 16.8733 227.999 16.8095 227.964 16.7271C227.928 16.6447 227.925 16.5547 227.954 16.4571L228.732 12.9785L226.158 10.634C226.085 10.5719 226.037 10.4977 226.014 10.4114C225.991 10.325 225.996 10.2424 226.03 10.1634C226.063 10.0844 226.107 10.0195 226.162 9.96872C226.218 9.91963 226.294 9.88634 226.388 9.86884L229.786 9.55737L231.111 6.26323C231.147 6.17012 231.2 6.10298 231.269 6.06179C231.337 6.0206 231.415 6 231.5 6C231.585 6 231.663 6.0206 231.732 6.06179C231.801 6.10298 231.854 6.17012 231.889 6.26323L233.214 9.55737L236.611 9.86884C236.706 9.88577 236.782 9.91934 236.837 9.96956C236.893 10.0192 236.938 10.0838 236.971 10.1634C237.004 10.2424 237.009 10.325 236.986 10.4114C236.963 10.4977 236.915 10.5719 236.842 10.634L234.267 12.9785L235.046 16.4571C235.076 16.5536 235.073 16.6433 235.037 16.7263C235.001 16.8092 234.948 16.873 234.878 16.9176C234.809 16.9627 234.738 16.9895 234.665 16.998C234.592 17.0064 234.512 16.9884 234.426 16.9438L231.5 15.0885Z" fill="white"/>
<path d="M312.675 45.461L315.825 43.561L318.975 45.486L318.15 41.886L320.925 39.486L317.275 39.161L315.825 35.761L314.375 39.136L310.725 39.461L313.5 41.886L312.675 45.461ZM315.825 44.738L312.195 46.93C312.088 46.9827 311.989 47.004 311.898 46.994C311.807 46.9833 311.719 46.952 311.633 46.9C311.546 46.8467 311.481 46.7713 311.437 46.674C311.393 46.5767 311.389 46.4703 311.425 46.355L312.391 42.245L309.196 39.475C309.106 39.4017 309.046 39.314 309.018 39.212C308.989 39.11 308.995 39.0123 309.037 38.919C309.078 38.8257 309.133 38.749 309.202 38.689C309.271 38.631 309.364 38.5917 309.482 38.571L313.698 38.203L315.342 34.311C315.387 34.201 315.452 34.1217 315.538 34.073C315.623 34.0243 315.719 34 315.825 34C315.931 34 316.027 34.0243 316.113 34.073C316.199 34.1217 316.264 34.201 316.308 34.311L317.952 38.203L322.167 38.571C322.285 38.591 322.378 38.6307 322.448 38.69C322.517 38.7487 322.572 38.825 322.614 38.919C322.654 39.0123 322.66 39.11 322.632 39.212C322.603 39.314 322.544 39.4017 322.454 39.475L319.259 42.245L320.225 46.355C320.262 46.469 320.258 46.575 320.214 46.673C320.169 46.771 320.103 46.8463 320.017 46.899C319.931 46.9523 319.843 46.984 319.752 46.994C319.661 47.004 319.562 46.9827 319.456 46.93L315.825 44.738Z" fill="white"/>
<path d="M289.884 18.173L291.5 17.1497L293.115 18.1865L292.692 16.2475L294.115 14.9548L292.244 14.7798L291.5 12.9485L290.756 14.7663L288.884 14.9414L290.308 16.2475L289.884 18.173ZM291.5 17.7836L289.638 18.9642C289.584 18.9926 289.533 19.0041 289.486 18.9987C289.44 18.993 289.394 18.9761 289.35 18.9481C289.306 18.9194 289.272 18.8788 289.25 18.8264C289.227 18.7739 289.225 18.7167 289.243 18.6545L289.739 16.4408L288.1 14.9489C288.054 14.9094 288.024 14.8622 288.009 14.8072C287.994 14.7523 287.998 14.6997 288.019 14.6494C288.04 14.5992 288.068 14.5579 288.103 14.5255C288.139 14.4943 288.187 14.4731 288.247 14.462L290.409 14.2638L291.252 12.1675C291.276 12.1083 291.309 12.0655 291.353 12.0393C291.397 12.0131 291.446 12 291.5 12C291.554 12 291.604 12.0131 291.648 12.0393C291.692 12.0655 291.725 12.1083 291.748 12.1675L292.591 14.2638L294.752 14.462C294.813 14.4728 294.861 14.4941 294.897 14.5261C294.932 14.5577 294.96 14.5988 294.982 14.6494C295.003 14.6997 295.006 14.7523 294.991 14.8072C294.976 14.8622 294.946 14.9094 294.9 14.9489L293.261 16.4408L293.756 18.6545C293.776 18.7159 293.774 18.773 293.751 18.8258C293.728 18.8786 293.694 18.9192 293.65 18.9475C293.606 18.9763 293.561 18.9933 293.514 18.9987C293.467 19.0041 293.417 18.9926 293.362 18.9642L291.5 17.7836Z" fill="white"/>
<path d="M198.884 18.173L200.5 17.1497L202.115 18.1865L201.692 16.2475L203.115 14.9548L201.244 14.7798L200.5 12.9485L199.756 14.7663L197.884 14.9414L199.308 16.2475L198.884 18.173ZM200.5 17.7836L198.638 18.9642C198.584 18.9926 198.533 19.0041 198.486 18.9987C198.44 18.993 198.394 18.9761 198.35 18.9481C198.306 18.9194 198.272 18.8788 198.25 18.8264C198.227 18.7739 198.225 18.7167 198.243 18.6545L198.739 16.4408L197.1 14.9489C197.054 14.9094 197.024 14.8622 197.009 14.8072C196.994 14.7523 196.998 14.6997 197.019 14.6494C197.04 14.5992 197.068 14.5579 197.103 14.5255C197.139 14.4943 197.187 14.4731 197.247 14.462L199.409 14.2638L200.252 12.1675C200.276 12.1083 200.309 12.0655 200.353 12.0393C200.397 12.0131 200.446 12 200.5 12C200.554 12 200.604 12.0131 200.648 12.0393C200.692 12.0655 200.725 12.1083 200.748 12.1675L201.591 14.2638L203.752 14.462C203.813 14.4728 203.861 14.4941 203.897 14.5261C203.932 14.5577 203.96 14.5988 203.982 14.6494C204.003 14.6997 204.006 14.7523 203.991 14.8072C203.976 14.8622 203.946 14.9094 203.9 14.9489L202.261 16.4408L202.756 18.6545C202.776 18.7159 202.774 18.773 202.751 18.8258C202.728 18.8786 202.694 18.9192 202.65 18.9475C202.606 18.9763 202.561 18.9933 202.514 18.9987C202.467 19.0041 202.417 18.9926 202.362 18.9642L200.5 17.7836Z" fill="white"/>
</g>
<g clip-path="url(#clip2_2_7)">
<path d="M219.185 90.7565C217.2 80.8115 212.063 71.7585 204.528 64.921C196.992 58.0836 187.453 53.8204 177.304 52.7547C167.155 51.689 156.929 53.8768 148.121 58.9981C139.313 64.1194 132.386 71.9057 128.351 81.2185C123.827 80.7007 119.243 81.1057 114.882 82.4089C110.52 83.7121 106.472 85.8859 102.986 88.7974C99.4992 91.7088 96.6475 95.2966 94.6053 99.341C92.5631 103.385 91.3732 107.801 91.1086 112.318C90.8441 116.836 91.5103 121.359 93.0665 125.611C94.6228 129.864 97.0363 133.756 100.159 137.049C103.282 140.343 107.049 142.969 111.229 144.766C115.409 146.562 119.914 147.493 124.469 147.5H215.313C222.591 147.508 229.6 144.768 234.92 139.834C240.241 134.9 243.475 128.142 243.967 120.928C244.459 113.714 242.173 106.584 237.572 100.982C232.971 95.3796 226.398 91.7244 219.185 90.7565Z" fill="url(#paint3_linear_2_7)"/>
<path d="M219.185 90.7565C217.2 80.8115 212.063 71.7585 204.528 64.921C196.992 58.0836 187.453 53.8204 177.304 52.7547C167.155 51.689 156.929 53.8768 148.121 58.9981C139.313 64.1194 132.386 71.9057 128.351 81.2185C123.827 80.7007 119.243 81.1057 114.882 82.4089C110.52 83.7121 106.472 85.8859 102.986 88.7974C99.4992 91.7088 96.6475 95.2966 94.6053 99.341C92.5631 103.385 91.3732 107.801 91.1086 112.318C90.8441 116.836 91.5103 121.359 93.0665 125.611C94.6228 129.864 97.0363 133.756 100.159 137.049C103.282 140.343 107.049 142.969 111.229 144.766C115.409 146.562 119.914 147.493 124.469 147.5H215.313C222.591 147.508 229.6 144.768 234.92 139.834C240.241 134.9 243.475 128.142 243.967 120.928C244.459 113.714 242.173 106.584 237.572 100.982C232.971 95.3796 226.398 91.7244 219.185 90.7565Z" fill="url(#paint4_linear_2_7)"/>
<path d="M171.675 35.461L174.825 33.561L177.975 35.486L177.15 31.886L179.925 29.486L176.275 29.161L174.825 25.761L173.375 29.136L169.725 29.461L172.5 31.886L171.675 35.461ZM174.825 34.738L171.195 36.93C171.088 36.9827 170.989 37.004 170.898 36.994C170.807 36.9833 170.719 36.952 170.633 36.9C170.546 36.8467 170.481 36.7713 170.437 36.674C170.393 36.5767 170.389 36.4703 170.425 36.355L171.391 32.245L168.196 29.475C168.106 29.4017 168.046 29.314 168.018 29.212C167.989 29.11 167.995 29.0123 168.037 28.919C168.078 28.8257 168.133 28.749 168.202 28.689C168.271 28.631 168.364 28.5917 168.482 28.571L172.698 28.203L174.342 24.311C174.387 24.201 174.452 24.1217 174.538 24.073C174.623 24.0243 174.719 24 174.825 24C174.931 24 175.027 24.0243 175.113 24.073C175.199 24.1217 175.264 24.201 175.308 24.311L176.952 28.203L181.167 28.571C181.285 28.591 181.378 28.6307 181.448 28.69C181.517 28.7487 181.572 28.825 181.614 28.919C181.654 29.0123 181.66 29.11 181.632 29.212C181.603 29.314 181.544 29.4017 181.454 29.475L178.259 32.245L179.225 36.355C179.262 36.469 179.258 36.575 179.214 36.673C179.169 36.771 179.103 36.8463 179.017 36.899C178.931 36.9523 178.843 36.984 178.752 36.994C178.661 37.004 178.562 36.9827 178.456 36.93L174.825 34.738Z" fill="white"/>
</g>
<defs>
<linearGradient id="paint0_linear_2_7" x1="76.5425" y1="28.4915" x2="76.5425" y2="123.5" gradientUnits="userSpaceOnUse">
<stop stop-color="#9F9F9F"/>
<stop offset="1" stop-color="#171616"/>
</linearGradient>
<linearGradient id="paint1_linear_2_7" x1="252.542" y1="34.4915" x2="252.542" y2="129.5" gradientUnits="userSpaceOnUse">
<stop stop-color="#9F9F9F"/>
<stop offset="0.0001" stop-color="#999999"/>
<stop offset="0.668269" stop-color="#393939"/>
</linearGradient>
<linearGradient id="paint2_linear_2_7" x1="252.542" y1="34.4915" x2="252.542" y2="129.5" gradientUnits="userSpaceOnUse">
<stop stop-color="#9F9F9F"/>
<stop offset="0.0001" stop-color="#999999"/>
<stop offset="0.668269" stop-color="#393939"/>
</linearGradient>
<linearGradient id="paint3_linear_2_7" x1="167.542" y1="52.4915" x2="167.542" y2="147.5" gradientUnits="userSpaceOnUse">
<stop stop-color="#2A2943"/>
<stop offset="0.0817308" stop-color="#080819"/>
<stop offset="0.466346" stop-color="#141560"/>
<stop offset="0.673077" stop-color="#211D9D"/>
<stop offset="0.841346" stop-color="#15127E"/>
<stop offset="0.9997" stop-color="#1C1B20"/>
<stop offset="0.9998" stop-color="#29283C"/>
<stop offset="0.9999" stop-color="#040080"/>
</linearGradient>
<linearGradient id="paint4_linear_2_7" x1="167.542" y1="52.4915" x2="167.542" y2="147.5" gradientUnits="userSpaceOnUse">
<stop stop-color="#2A2943"/>
<stop offset="0.0817308" stop-color="#080819"/>
<stop offset="0.466346" stop-color="#141560"/>
<stop offset="0.673077" stop-color="#211D9D"/>
<stop offset="0.841346" stop-color="#15127E"/>
<stop offset="0.9997" stop-color="#1C1B20"/>
<stop offset="0.9998" stop-color="#29283C"/>
<stop offset="0.9999" stop-color="#040080"/>
</linearGradient>
<clipPath id="clip0_2_7">
<rect width="153" height="152" fill="white"/>
</clipPath>
<clipPath id="clip1_2_7">
<rect width="153" height="152" fill="white" transform="translate(176 6)"/>
</clipPath>
<clipPath id="clip2_2_7">
<rect width="153" height="152" fill="white" transform="translate(91 24)"/>
</clipPath>
</defs>
</svg>
